%TF.GenerationSoftware,KiCad,Pcbnew,7.0.2*%
%TF.CreationDate,2023-06-03T11:17:19+05:30*%
%TF.ProjectId,gerb,67657262-2e6b-4696-9361-645f70636258,rev?*%
%TF.SameCoordinates,Original*%
%TF.FileFunction,Soldermask,Bot*%
%TF.FilePolarity,Negative*%
%FSLAX46Y46*%
G04 Gerber Fmt 4.6, Leading zero omitted, Abs format (unit mm)*
G04 Created by KiCad (PCBNEW 7.0.2) date 2023-06-03 11:17:19*
%MOMM*%
%LPD*%
G01*
G04 APERTURE LIST*
%ADD10C,2.000000*%
%ADD11C,1.600000*%
%ADD12O,1.600000X1.600000*%
%ADD13C,2.340000*%
%ADD14C,3.000000*%
%ADD15R,2.600000X1.800000*%
%ADD16O,2.600000X1.800000*%
%ADD17R,1.250000X1.250000*%
%ADD18C,1.250000*%
%ADD19R,1.350000X1.350000*%
%ADD20O,1.350000X1.350000*%
%ADD21C,2.200000*%
%ADD22R,1.800000X1.800000*%
%ADD23C,1.800000*%
%ADD24R,2.000000X2.000000*%
%ADD25O,2.000000X2.000000*%
%ADD26C,1.500000*%
%ADD27R,2.200000X2.200000*%
%ADD28O,2.200000X2.200000*%
%ADD29R,1.050000X1.500000*%
%ADD30O,1.050000X1.500000*%
G04 APERTURE END LIST*
D10*
%TO.C,SW1*%
X91440000Y-99060000D03*
X84940000Y-99060000D03*
X91440000Y-94560000D03*
X84940000Y-94560000D03*
%TD*%
D11*
%TO.C,R5*%
X133890000Y-71120000D03*
D12*
X133890000Y-55880000D03*
%TD*%
D11*
%TO.C,C2*%
X89360000Y-106720000D03*
X84360000Y-106720000D03*
%TD*%
%TO.C,R4*%
X129540000Y-71120000D03*
D12*
X129540000Y-55880000D03*
%TD*%
D11*
%TO.C,R7*%
X99060000Y-83820000D03*
D12*
X83820000Y-83820000D03*
%TD*%
D11*
%TO.C,R6*%
X137160000Y-71120000D03*
D12*
X137160000Y-55880000D03*
%TD*%
D13*
%TO.C,RV1*%
X147060000Y-116920000D03*
X147060000Y-121920000D03*
X147060000Y-126920000D03*
%TD*%
D14*
%TO.C,DS1*%
X160020000Y-104559100D03*
X191020700Y-104559100D03*
X191020700Y-29560520D03*
X160020000Y-29560000D03*
D15*
X160020000Y-99060000D03*
D16*
X160020000Y-96520000D03*
X160020000Y-93980000D03*
X160020000Y-91440000D03*
X160020000Y-88900000D03*
X160020000Y-86360000D03*
X160020000Y-83820000D03*
X160020000Y-81280000D03*
X160020000Y-78740000D03*
X160020000Y-76200000D03*
X160020000Y-73660000D03*
X160020000Y-71120000D03*
X160020000Y-68580000D03*
X160020000Y-66040000D03*
X160020000Y-63500000D03*
X160020000Y-60960000D03*
%TD*%
D17*
%TO.C,U1*%
X106362000Y-60960000D03*
D18*
X106362000Y-63500000D03*
X106362000Y-66040000D03*
X106362000Y-68580000D03*
X106362000Y-71120000D03*
X106362000Y-73660000D03*
X106362000Y-76200000D03*
X106362000Y-78740000D03*
X106362000Y-81280000D03*
X106362000Y-83820000D03*
X106362000Y-86360000D03*
X106362000Y-88900000D03*
X106362000Y-91440000D03*
X106362000Y-93980000D03*
X106362000Y-96520000D03*
X106362000Y-99060000D03*
X106362000Y-101600000D03*
X106362000Y-104140000D03*
X106362000Y-106680000D03*
X106362000Y-109220000D03*
X121920000Y-109220000D03*
X121920000Y-106680000D03*
X121920000Y-104140000D03*
X121920000Y-101600000D03*
X121920000Y-99060000D03*
X121920000Y-96520000D03*
X121920000Y-93980000D03*
X121920000Y-91440000D03*
X121920000Y-88900000D03*
X121920000Y-86360000D03*
X121920000Y-83820000D03*
X121920000Y-81280000D03*
X121920000Y-78740000D03*
X121920000Y-76200000D03*
X121920000Y-73660000D03*
X121920000Y-71120000D03*
X121920000Y-68580000D03*
X121920000Y-66040000D03*
X121920000Y-63500000D03*
X121920000Y-60960000D03*
%TD*%
D19*
%TO.C,J4*%
X58420000Y-106680000D03*
%TD*%
%TO.C,J2*%
X58420000Y-114300000D03*
D20*
X58420000Y-112300000D03*
%TD*%
D19*
%TO.C,J3*%
X58420000Y-102630000D03*
%TD*%
D21*
%TO.C,K1*%
X67362500Y-110682500D03*
X74982500Y-118302500D03*
X67362500Y-118302500D03*
D22*
X67362500Y-100522500D03*
D23*
X74982500Y-100522500D03*
%TD*%
D24*
%TO.C,C3*%
X83940000Y-89142500D03*
D25*
X98940000Y-89142500D03*
%TD*%
D11*
%TO.C,C1*%
X89360000Y-111800000D03*
X84360000Y-111800000D03*
%TD*%
%TO.C,R1*%
X101600000Y-111760000D03*
D12*
X101600000Y-96520000D03*
%TD*%
D26*
%TO.C,Y1*%
X94520000Y-109220000D03*
X94520000Y-104320000D03*
%TD*%
D19*
%TO.C,J1*%
X128540000Y-108140000D03*
D20*
X128540000Y-106140000D03*
X128540000Y-104140000D03*
X128540000Y-102140000D03*
X128540000Y-100140000D03*
X128540000Y-98140000D03*
X128540000Y-96140000D03*
X128540000Y-94140000D03*
%TD*%
D27*
%TO.C,D1*%
X78740000Y-96520000D03*
D28*
X68580000Y-96520000D03*
%TD*%
D29*
%TO.C,Q2*%
X63500000Y-86360000D03*
D30*
X64770000Y-86360000D03*
X66040000Y-86360000D03*
%TD*%
M02*
