%TF.GenerationSoftware,KiCad,Pcbnew,7.0.2*%
%TF.CreationDate,2023-06-03T11:17:19+05:30*%
%TF.ProjectId,gerb,67657262-2e6b-4696-9361-645f70636258,rev?*%
%TF.SameCoordinates,Original*%
%TF.FileFunction,Copper,L1,Top*%
%TF.FilePolarity,Positive*%
%FSLAX46Y46*%
G04 Gerber Fmt 4.6, Leading zero omitted, Abs format (unit mm)*
G04 Created by KiCad (PCBNEW 7.0.2) date 2023-06-03 11:17:19*
%MOMM*%
%LPD*%
G01*
G04 APERTURE LIST*
%TA.AperFunction,ComponentPad*%
%ADD10C,2.000000*%
%TD*%
%TA.AperFunction,ComponentPad*%
%ADD11C,1.600000*%
%TD*%
%TA.AperFunction,ComponentPad*%
%ADD12O,1.600000X1.600000*%
%TD*%
%TA.AperFunction,ComponentPad*%
%ADD13C,2.340000*%
%TD*%
%TA.AperFunction,ComponentPad*%
%ADD14C,3.000000*%
%TD*%
%TA.AperFunction,ComponentPad*%
%ADD15R,2.600000X1.800000*%
%TD*%
%TA.AperFunction,ComponentPad*%
%ADD16O,2.600000X1.800000*%
%TD*%
%TA.AperFunction,ComponentPad*%
%ADD17R,1.250000X1.250000*%
%TD*%
%TA.AperFunction,ComponentPad*%
%ADD18C,1.250000*%
%TD*%
%TA.AperFunction,ComponentPad*%
%ADD19R,1.350000X1.350000*%
%TD*%
%TA.AperFunction,ComponentPad*%
%ADD20O,1.350000X1.350000*%
%TD*%
%TA.AperFunction,ComponentPad*%
%ADD21C,2.200000*%
%TD*%
%TA.AperFunction,ComponentPad*%
%ADD22R,1.800000X1.800000*%
%TD*%
%TA.AperFunction,ComponentPad*%
%ADD23C,1.800000*%
%TD*%
%TA.AperFunction,ComponentPad*%
%ADD24R,2.000000X2.000000*%
%TD*%
%TA.AperFunction,ComponentPad*%
%ADD25O,2.000000X2.000000*%
%TD*%
%TA.AperFunction,ComponentPad*%
%ADD26C,1.500000*%
%TD*%
%TA.AperFunction,ComponentPad*%
%ADD27R,2.200000X2.200000*%
%TD*%
%TA.AperFunction,ComponentPad*%
%ADD28O,2.200000X2.200000*%
%TD*%
%TA.AperFunction,ComponentPad*%
%ADD29R,1.050000X1.500000*%
%TD*%
%TA.AperFunction,ComponentPad*%
%ADD30O,1.050000X1.500000*%
%TD*%
%TA.AperFunction,Conductor*%
%ADD31C,0.500000*%
%TD*%
G04 APERTURE END LIST*
D10*
%TO.P,SW1,1,1*%
%TO.N,VCC*%
X91440000Y-99060000D03*
X84940000Y-99060000D03*
%TO.P,SW1,2,2*%
%TO.N,Net-(U1-RST)*%
X91440000Y-94560000D03*
X84940000Y-94560000D03*
%TD*%
D11*
%TO.P,R5,1*%
%TO.N,Net-(DS1-R{slash}~{W})*%
X133890000Y-71120000D03*
D12*
%TO.P,R5,2*%
%TO.N,VCC*%
X133890000Y-55880000D03*
%TD*%
D11*
%TO.P,C2,1*%
%TO.N,Net-(U1-XTAL2)*%
X89360000Y-106720000D03*
%TO.P,C2,2*%
%TO.N,GND*%
X84360000Y-106720000D03*
%TD*%
%TO.P,R4,1*%
%TO.N,Net-(DS1-RS)*%
X129540000Y-71120000D03*
D12*
%TO.P,R4,2*%
%TO.N,VCC*%
X129540000Y-55880000D03*
%TD*%
D11*
%TO.P,R7,1*%
%TO.N,Net-(U1-(RXD)P3.0)*%
X99060000Y-83820000D03*
D12*
%TO.P,R7,2*%
%TO.N,Net-(Q2-B)*%
X83820000Y-83820000D03*
%TD*%
D11*
%TO.P,R6,1*%
%TO.N,Net-(DS1-E)*%
X137160000Y-71120000D03*
D12*
%TO.P,R6,2*%
%TO.N,VCC*%
X137160000Y-55880000D03*
%TD*%
D13*
%TO.P,RV1,1,1*%
%TO.N,VCC*%
X147060000Y-116920000D03*
%TO.P,RV1,2,2*%
%TO.N,Net-(DS1-Vo)*%
X147060000Y-121920000D03*
%TO.P,RV1,3,3*%
%TO.N,GND*%
X147060000Y-126920000D03*
%TD*%
D14*
%TO.P,DS1,*%
%TO.N,*%
X160020000Y-104559100D03*
X191020700Y-104559100D03*
X191020700Y-29560520D03*
X160020000Y-29560000D03*
D15*
%TO.P,DS1,1,LEDK*%
%TO.N,GND*%
X160020000Y-99060000D03*
D16*
%TO.P,DS1,2,LEDA*%
%TO.N,VCC*%
X160020000Y-96520000D03*
%TO.P,DS1,3,VSS*%
%TO.N,GND*%
X160020000Y-93980000D03*
%TO.P,DS1,4,VDD*%
%TO.N,VCC*%
X160020000Y-91440000D03*
%TO.P,DS1,5,Vo*%
%TO.N,Net-(DS1-Vo)*%
X160020000Y-88900000D03*
%TO.P,DS1,6,RS*%
%TO.N,Net-(DS1-RS)*%
X160020000Y-86360000D03*
%TO.P,DS1,7,R/~{W}*%
%TO.N,Net-(DS1-R{slash}~{W})*%
X160020000Y-83820000D03*
%TO.P,DS1,8,E*%
%TO.N,Net-(DS1-E)*%
X160020000Y-81280000D03*
%TO.P,DS1,9,DB0*%
%TO.N,Net-(DS1-DB0)*%
X160020000Y-78740000D03*
%TO.P,DS1,10,DB1*%
%TO.N,Net-(DS1-DB1)*%
X160020000Y-76200000D03*
%TO.P,DS1,11,DB2*%
%TO.N,Net-(DS1-DB2)*%
X160020000Y-73660000D03*
%TO.P,DS1,12,DB3*%
%TO.N,Net-(DS1-DB3)*%
X160020000Y-71120000D03*
%TO.P,DS1,13,DB4*%
%TO.N,Net-(DS1-DB4)*%
X160020000Y-68580000D03*
%TO.P,DS1,14,DB5*%
%TO.N,Net-(DS1-DB5)*%
X160020000Y-66040000D03*
%TO.P,DS1,15,DB6*%
%TO.N,Net-(DS1-DB6)*%
X160020000Y-63500000D03*
%TO.P,DS1,16,DB7*%
%TO.N,Net-(DS1-DB7)*%
X160020000Y-60960000D03*
%TD*%
D17*
%TO.P,U1,1,P1.0*%
%TO.N,Net-(DS1-DB0)*%
X106362000Y-60960000D03*
D18*
%TO.P,U1,2,P1.1*%
%TO.N,Net-(DS1-DB1)*%
X106362000Y-63500000D03*
%TO.P,U1,3,P1.2*%
%TO.N,Net-(DS1-DB2)*%
X106362000Y-66040000D03*
%TO.P,U1,4,P1.3*%
%TO.N,Net-(DS1-DB3)*%
X106362000Y-68580000D03*
%TO.P,U1,5,P1.4*%
%TO.N,Net-(DS1-DB4)*%
X106362000Y-71120000D03*
%TO.P,U1,6,P1.5*%
%TO.N,Net-(DS1-DB5)*%
X106362000Y-73660000D03*
%TO.P,U1,7,P1.6*%
%TO.N,Net-(DS1-DB6)*%
X106362000Y-76200000D03*
%TO.P,U1,8,P1.7*%
%TO.N,Net-(DS1-DB7)*%
X106362000Y-78740000D03*
%TO.P,U1,9,RST*%
%TO.N,Net-(U1-RST)*%
X106362000Y-81280000D03*
%TO.P,U1,10,(RXD)P3.0*%
%TO.N,Net-(U1-(RXD)P3.0)*%
X106362000Y-83820000D03*
%TO.P,U1,11,(TXD)P3.1*%
%TO.N,unconnected-(U1-(TXD)P3.1-Pad11)*%
X106362000Y-86360000D03*
%TO.P,U1,12,(INT0)P3.2*%
%TO.N,unconnected-(U1-(INT0)P3.2-Pad12)*%
X106362000Y-88900000D03*
%TO.P,U1,13,(INT1)P3.3*%
%TO.N,unconnected-(U1-(INT1)P3.3-Pad13)*%
X106362000Y-91440000D03*
%TO.P,U1,14,(T0)P3.4*%
%TO.N,unconnected-(U1-(T0)P3.4-Pad14)*%
X106362000Y-93980000D03*
%TO.P,U1,15,(T1)P3.5*%
%TO.N,unconnected-(U1-(T1)P3.5-Pad15)*%
X106362000Y-96520000D03*
%TO.P,U1,16,(WR)P3.6*%
%TO.N,unconnected-(U1-(WR)P3.6-Pad16)*%
X106362000Y-99060000D03*
%TO.P,U1,17,(RD)P3.7*%
%TO.N,unconnected-(U1-(RD)P3.7-Pad17)*%
X106362000Y-101600000D03*
%TO.P,U1,18,XTAL2*%
%TO.N,Net-(U1-XTAL2)*%
X106362000Y-104140000D03*
%TO.P,U1,19,XTAL1*%
%TO.N,Net-(U1-XTAL1)*%
X106362000Y-106680000D03*
%TO.P,U1,20,GND*%
%TO.N,GND*%
X106362000Y-109220000D03*
%TO.P,U1,21,P2.0(AD8)*%
%TO.N,Net-(J1-Pin_1)*%
X121920000Y-109220000D03*
%TO.P,U1,22,P2.1(AD9)*%
%TO.N,Net-(J1-Pin_2)*%
X121920000Y-106680000D03*
%TO.P,U1,23,P2.2(AD10)*%
%TO.N,Net-(J1-Pin_3)*%
X121920000Y-104140000D03*
%TO.P,U1,24,P2.3(AD11)*%
%TO.N,Net-(J1-Pin_4)*%
X121920000Y-101600000D03*
%TO.P,U1,25,P2.4(AD12)*%
%TO.N,Net-(J1-Pin_5)*%
X121920000Y-99060000D03*
%TO.P,U1,26,P2.5(AD13)*%
%TO.N,Net-(J1-Pin_6)*%
X121920000Y-96520000D03*
%TO.P,U1,27,P2.6(AD14)*%
%TO.N,Net-(J1-Pin_7)*%
X121920000Y-93980000D03*
%TO.P,U1,28,P2.7(AD15)*%
%TO.N,Net-(J1-Pin_8)*%
X121920000Y-91440000D03*
%TO.P,U1,29,~PSEN*%
%TO.N,unconnected-(U1-~PSEN-Pad29)*%
X121920000Y-88900000D03*
%TO.P,U1,30,ALE/~PROG*%
%TO.N,unconnected-(U1-ALE{slash}~PROG-Pad30)*%
X121920000Y-86360000D03*
%TO.P,U1,31,~EA/VPP*%
%TO.N,unconnected-(U1-~EA{slash}VPP-Pad31)*%
X121920000Y-83820000D03*
%TO.P,U1,32,P0.7(AD7)*%
%TO.N,unconnected-(U1-P0.7(AD7)-Pad32)*%
X121920000Y-81280000D03*
%TO.P,U1,33,P0.6(AD6)*%
%TO.N,unconnected-(U1-P0.6(AD6)-Pad33)*%
X121920000Y-78740000D03*
%TO.P,U1,34,P0.5(AD5)*%
%TO.N,unconnected-(U1-P0.5(AD5)-Pad34)*%
X121920000Y-76200000D03*
%TO.P,U1,35,P0.4(AD4)*%
%TO.N,unconnected-(U1-P0.4(AD4)-Pad35)*%
X121920000Y-73660000D03*
%TO.P,U1,36,P0.3(AD3)*%
%TO.N,unconnected-(U1-P0.3(AD3)-Pad36)*%
X121920000Y-71120000D03*
%TO.P,U1,37,P0.2(AD2)*%
%TO.N,Net-(DS1-RS)*%
X121920000Y-68580000D03*
%TO.P,U1,38,P0.1(AD1)*%
%TO.N,Net-(DS1-R{slash}~{W})*%
X121920000Y-66040000D03*
%TO.P,U1,39,P0.0(AD0)*%
%TO.N,Net-(DS1-E)*%
X121920000Y-63500000D03*
%TO.P,U1,40,VCC*%
%TO.N,VCC*%
X121920000Y-60960000D03*
%TD*%
D19*
%TO.P,J4,1,Pin_1*%
%TO.N,GND*%
X58420000Y-106680000D03*
%TD*%
%TO.P,J2,1,Pin_1*%
%TO.N,Net-(J2-Pin_1)*%
X58420000Y-114300000D03*
D20*
%TO.P,J2,2,Pin_2*%
%TO.N,Net-(J2-Pin_2)*%
X58420000Y-112300000D03*
%TD*%
D19*
%TO.P,J3,1,Pin_1*%
%TO.N,VCC*%
X58420000Y-102630000D03*
%TD*%
D21*
%TO.P,K1,11*%
%TO.N,Net-(J2-Pin_2)*%
X67362500Y-110682500D03*
%TO.P,K1,12*%
%TO.N,Net-(J2-Pin_1)*%
X74982500Y-118302500D03*
%TO.P,K1,14*%
%TO.N,unconnected-(K1-Pad14)*%
X67362500Y-118302500D03*
D22*
%TO.P,K1,A1*%
%TO.N,Net-(D1-A)*%
X67362500Y-100522500D03*
D23*
%TO.P,K1,A2*%
%TO.N,VCC*%
X74982500Y-100522500D03*
%TD*%
D24*
%TO.P,C3,1*%
%TO.N,VCC*%
X83940000Y-89142500D03*
D25*
%TO.P,C3,2*%
%TO.N,Net-(U1-RST)*%
X98940000Y-89142500D03*
%TD*%
D11*
%TO.P,C1,1*%
%TO.N,Net-(U1-XTAL1)*%
X89360000Y-111800000D03*
%TO.P,C1,2*%
%TO.N,GND*%
X84360000Y-111800000D03*
%TD*%
%TO.P,R1,1*%
%TO.N,GND*%
X101600000Y-111760000D03*
D12*
%TO.P,R1,2*%
%TO.N,Net-(U1-RST)*%
X101600000Y-96520000D03*
%TD*%
D26*
%TO.P,Y1,1,1*%
%TO.N,Net-(U1-XTAL1)*%
X94520000Y-109220000D03*
%TO.P,Y1,2,2*%
%TO.N,Net-(U1-XTAL2)*%
X94520000Y-104320000D03*
%TD*%
D19*
%TO.P,J1,1,Pin_1*%
%TO.N,Net-(J1-Pin_1)*%
X128540000Y-108140000D03*
D20*
%TO.P,J1,2,Pin_2*%
%TO.N,Net-(J1-Pin_2)*%
X128540000Y-106140000D03*
%TO.P,J1,3,Pin_3*%
%TO.N,Net-(J1-Pin_3)*%
X128540000Y-104140000D03*
%TO.P,J1,4,Pin_4*%
%TO.N,Net-(J1-Pin_4)*%
X128540000Y-102140000D03*
%TO.P,J1,5,Pin_5*%
%TO.N,Net-(J1-Pin_5)*%
X128540000Y-100140000D03*
%TO.P,J1,6,Pin_6*%
%TO.N,Net-(J1-Pin_6)*%
X128540000Y-98140000D03*
%TO.P,J1,7,Pin_7*%
%TO.N,Net-(J1-Pin_7)*%
X128540000Y-96140000D03*
%TO.P,J1,8,Pin_8*%
%TO.N,Net-(J1-Pin_8)*%
X128540000Y-94140000D03*
%TD*%
D27*
%TO.P,D1,1,K*%
%TO.N,VCC*%
X78740000Y-96520000D03*
D28*
%TO.P,D1,2,A*%
%TO.N,Net-(D1-A)*%
X68580000Y-96520000D03*
%TD*%
D29*
%TO.P,Q2,1,C*%
%TO.N,Net-(D1-A)*%
X63500000Y-86360000D03*
D30*
%TO.P,Q2,2,B*%
%TO.N,Net-(Q2-B)*%
X64770000Y-86360000D03*
%TO.P,Q2,3,E*%
%TO.N,GND*%
X66040000Y-86360000D03*
%TD*%
D31*
%TO.N,Net-(U1-XTAL1)*%
X89360000Y-111800000D02*
X91940000Y-111800000D01*
X97060000Y-106680000D02*
X94520000Y-109220000D01*
X91940000Y-111800000D02*
X94520000Y-109220000D01*
X106362000Y-106680000D02*
X97060000Y-106680000D01*
%TO.N,GND*%
X78740000Y-121920000D02*
X84360000Y-116300000D01*
X84360000Y-116300000D02*
X84360000Y-111800000D01*
X66040000Y-86135000D02*
X63725000Y-83820000D01*
X101600000Y-111760000D02*
X97060000Y-116300000D01*
X107680000Y-126920000D02*
X97060000Y-116300000D01*
X137160000Y-126920000D02*
X107680000Y-126920000D01*
X103822000Y-111760000D02*
X101600000Y-111760000D01*
X48260000Y-106680000D02*
X48260000Y-121920000D01*
X97060000Y-116300000D02*
X84360000Y-116300000D01*
X139700000Y-93980000D02*
X137160000Y-96520000D01*
X139700000Y-99060000D02*
X160020000Y-99060000D01*
X147060000Y-126920000D02*
X137160000Y-126920000D01*
X58420000Y-106680000D02*
X48260000Y-106680000D01*
X106362000Y-109220000D02*
X103822000Y-111760000D01*
X63725000Y-83820000D02*
X48260000Y-83820000D01*
X66040000Y-86360000D02*
X66040000Y-86135000D01*
X137160000Y-126920000D02*
X137160000Y-101600000D01*
X84360000Y-111800000D02*
X84360000Y-106720000D01*
X137160000Y-96520000D02*
X137160000Y-101600000D01*
X160020000Y-93980000D02*
X139700000Y-93980000D01*
X48260000Y-83820000D02*
X48260000Y-106680000D01*
X137160000Y-101600000D02*
X139700000Y-99060000D01*
X48260000Y-121920000D02*
X78740000Y-121920000D01*
%TO.N,Net-(U1-XTAL2)*%
X94700000Y-104140000D02*
X94520000Y-104320000D01*
X91760000Y-104320000D02*
X89360000Y-106720000D01*
X94520000Y-104320000D02*
X91760000Y-104320000D01*
X106362000Y-104140000D02*
X94700000Y-104140000D01*
%TO.N,VCC*%
X162480000Y-116920000D02*
X147060000Y-116920000D01*
X92390000Y-100010000D02*
X91440000Y-99060000D01*
X77277500Y-100522500D02*
X78740000Y-99060000D01*
X110810000Y-100010000D02*
X92390000Y-100010000D01*
X83940000Y-89142500D02*
X78860000Y-89142500D01*
X78860000Y-89142500D02*
X78860000Y-96400000D01*
X115250000Y-82230000D02*
X111760000Y-78740000D01*
X111760000Y-99060000D02*
X110810000Y-100010000D01*
X111760000Y-78740000D02*
X111760000Y-99060000D01*
X84940000Y-99060000D02*
X91440000Y-99060000D01*
X160020000Y-91440000D02*
X162560000Y-91440000D01*
X121920000Y-60960000D02*
X127000000Y-55880000D01*
X162560000Y-96520000D02*
X162560000Y-116840000D01*
X59450000Y-102630000D02*
X58420000Y-102630000D01*
X74982500Y-100522500D02*
X71365000Y-104140000D01*
X154940000Y-91440000D02*
X152400000Y-88900000D01*
X71365000Y-104140000D02*
X60960000Y-104140000D01*
X162560000Y-116840000D02*
X162480000Y-116920000D01*
X123510000Y-82230000D02*
X115250000Y-82230000D01*
X84940000Y-99060000D02*
X78740000Y-99060000D01*
X152400000Y-88900000D02*
X139700000Y-88900000D01*
X139700000Y-88900000D02*
X132080000Y-81280000D01*
X124460000Y-81280000D02*
X123510000Y-82230000D01*
X160020000Y-91440000D02*
X154940000Y-91440000D01*
X127000000Y-55880000D02*
X129540000Y-55880000D01*
X132080000Y-81280000D02*
X124460000Y-81280000D01*
X111760000Y-71120000D02*
X111760000Y-78740000D01*
X60960000Y-104140000D02*
X59450000Y-102630000D01*
X121920000Y-60960000D02*
X111760000Y-71120000D01*
X74982500Y-100522500D02*
X77277500Y-100522500D01*
X162560000Y-91440000D02*
X162560000Y-96520000D01*
X78740000Y-99060000D02*
X78740000Y-96520000D01*
X160020000Y-96520000D02*
X162560000Y-96520000D01*
X78860000Y-96400000D02*
X78740000Y-96520000D01*
X137160000Y-55880000D02*
X133890000Y-55880000D01*
X133890000Y-55880000D02*
X129540000Y-55880000D01*
%TO.N,Net-(U1-RST)*%
X98940000Y-92140000D02*
X93860000Y-92140000D01*
X109220000Y-84138000D02*
X109220000Y-86360000D01*
X93400000Y-96520000D02*
X91440000Y-94560000D01*
X93860000Y-92140000D02*
X91440000Y-94560000D01*
X107630000Y-87950000D02*
X100132500Y-87950000D01*
X100132500Y-87950000D02*
X98940000Y-89142500D01*
X98940000Y-89142500D02*
X98940000Y-92140000D01*
X106362000Y-81280000D02*
X109220000Y-84138000D01*
X101600000Y-96520000D02*
X93400000Y-96520000D01*
X109220000Y-86360000D02*
X107630000Y-87950000D01*
X84940000Y-94560000D02*
X91440000Y-94560000D01*
%TO.N,Net-(D1-A)*%
X63500000Y-91440000D02*
X63500000Y-86360000D01*
X68580000Y-96520000D02*
X63500000Y-91440000D01*
X67362500Y-97737500D02*
X68580000Y-96520000D01*
X67362500Y-100522500D02*
X67362500Y-97737500D01*
%TO.N,Net-(DS1-Vo)*%
X165100000Y-119380000D02*
X165100000Y-88900000D01*
X162560000Y-121920000D02*
X165100000Y-119380000D01*
X165100000Y-88900000D02*
X160020000Y-88900000D01*
X147060000Y-121920000D02*
X162560000Y-121920000D01*
%TO.N,Net-(DS1-RS)*%
X139700000Y-86360000D02*
X129540000Y-76200000D01*
X160020000Y-86360000D02*
X139700000Y-86360000D01*
X129540000Y-76200000D02*
X129540000Y-71120000D01*
X121920000Y-68580000D02*
X127000000Y-68580000D01*
X127000000Y-68580000D02*
X129540000Y-71120000D01*
%TO.N,Net-(DS1-R{slash}~{W})*%
X141510000Y-83820000D02*
X133890000Y-76200000D01*
X160020000Y-83820000D02*
X141510000Y-83820000D01*
X121920000Y-66040000D02*
X132080000Y-66040000D01*
X132080000Y-66040000D02*
X133890000Y-67850000D01*
X133890000Y-76200000D02*
X133890000Y-71120000D01*
X133890000Y-67850000D02*
X133890000Y-71120000D01*
%TO.N,Net-(DS1-E)*%
X137160000Y-63500000D02*
X137160000Y-71120000D01*
X142240000Y-81280000D02*
X137160000Y-76200000D01*
X137160000Y-76200000D02*
X137160000Y-71120000D01*
X121920000Y-63500000D02*
X137160000Y-63500000D01*
X160020000Y-81280000D02*
X142240000Y-81280000D01*
%TO.N,Net-(DS1-DB0)*%
X106362000Y-60960000D02*
X106362000Y-53658000D01*
X139700000Y-53340000D02*
X139700000Y-76200000D01*
X106680000Y-53340000D02*
X139700000Y-53340000D01*
X142240000Y-78740000D02*
X160020000Y-78740000D01*
X139700000Y-76200000D02*
X142240000Y-78740000D01*
X106362000Y-53658000D02*
X106680000Y-53340000D01*
%TO.N,Net-(DS1-DB1)*%
X104140000Y-50800000D02*
X142240000Y-50800000D01*
X142240000Y-76200000D02*
X160020000Y-76200000D01*
X106362000Y-63500000D02*
X104140000Y-63500000D01*
X142240000Y-50800000D02*
X142240000Y-76200000D01*
X104140000Y-63500000D02*
X104140000Y-50800000D01*
%TO.N,Net-(DS1-DB2)*%
X106362000Y-66040000D02*
X101600000Y-66040000D01*
X144780000Y-73660000D02*
X160020000Y-73660000D01*
X101600000Y-48260000D02*
X144780000Y-48260000D01*
X101600000Y-66040000D02*
X101600000Y-48260000D01*
X144780000Y-48260000D02*
X144780000Y-73660000D01*
%TO.N,Net-(DS1-DB3)*%
X99060000Y-68580000D02*
X99060000Y-45720000D01*
X106362000Y-68580000D02*
X99060000Y-68580000D01*
X99060000Y-45720000D02*
X147320000Y-45720000D01*
X147320000Y-71120000D02*
X160020000Y-71120000D01*
X147320000Y-45720000D02*
X147320000Y-71120000D01*
%TO.N,Net-(DS1-DB4)*%
X106362000Y-71120000D02*
X96520000Y-71120000D01*
X149860000Y-43180000D02*
X149860000Y-68580000D01*
X149860000Y-68580000D02*
X160020000Y-68580000D01*
X96520000Y-43180000D02*
X149860000Y-43180000D01*
X96520000Y-71120000D02*
X96520000Y-43180000D01*
%TO.N,Net-(DS1-DB5)*%
X152400000Y-66040000D02*
X152400000Y-40640000D01*
X160020000Y-66040000D02*
X152400000Y-66040000D01*
X106362000Y-73660000D02*
X93980000Y-73660000D01*
X93980000Y-73660000D02*
X93980000Y-40640000D01*
X152400000Y-40640000D02*
X93980000Y-40640000D01*
%TO.N,Net-(DS1-DB6)*%
X154940000Y-63500000D02*
X160020000Y-63500000D01*
X91440000Y-38100000D02*
X154940000Y-38100000D01*
X91440000Y-76200000D02*
X91440000Y-38100000D01*
X106362000Y-76200000D02*
X91440000Y-76200000D01*
X154940000Y-38100000D02*
X154940000Y-63500000D01*
%TO.N,Net-(DS1-DB7)*%
X160020000Y-35560000D02*
X160020000Y-60960000D01*
X106362000Y-78740000D02*
X88900000Y-78740000D01*
X88900000Y-35560000D02*
X160020000Y-35560000D01*
X88900000Y-78740000D02*
X88900000Y-35560000D01*
%TO.N,Net-(Q2-B)*%
X64770000Y-87630000D02*
X64770000Y-86360000D01*
X66040000Y-88900000D02*
X64770000Y-87630000D01*
X83820000Y-83820000D02*
X78740000Y-83820000D01*
X73660000Y-88900000D02*
X66040000Y-88900000D01*
X78740000Y-83820000D02*
X73660000Y-88900000D01*
%TO.N,Net-(U1-(RXD)P3.0)*%
X106362000Y-83820000D02*
X99060000Y-83820000D01*
%TO.N,Net-(J1-Pin_1)*%
X121920000Y-109220000D02*
X127460000Y-109220000D01*
X127460000Y-109220000D02*
X128540000Y-108140000D01*
%TO.N,Net-(J1-Pin_2)*%
X128000000Y-106680000D02*
X128540000Y-106140000D01*
X121920000Y-106680000D02*
X128000000Y-106680000D01*
%TO.N,Net-(J1-Pin_3)*%
X121920000Y-104140000D02*
X128540000Y-104140000D01*
%TO.N,Net-(J1-Pin_4)*%
X128000000Y-101600000D02*
X128540000Y-102140000D01*
X121920000Y-101600000D02*
X128000000Y-101600000D01*
%TO.N,Net-(J1-Pin_5)*%
X127460000Y-99060000D02*
X128540000Y-100140000D01*
X121920000Y-99060000D02*
X127460000Y-99060000D01*
%TO.N,Net-(J1-Pin_6)*%
X126920000Y-96520000D02*
X128540000Y-98140000D01*
X121920000Y-96520000D02*
X126920000Y-96520000D01*
%TO.N,Net-(J1-Pin_7)*%
X126380000Y-93980000D02*
X128540000Y-96140000D01*
X121920000Y-93980000D02*
X126380000Y-93980000D01*
%TO.N,Net-(J1-Pin_8)*%
X125840000Y-91440000D02*
X128540000Y-94140000D01*
X121920000Y-91440000D02*
X125840000Y-91440000D01*
%TO.N,Net-(J2-Pin_1)*%
X72582500Y-118302500D02*
X68580000Y-114300000D01*
X68580000Y-114300000D02*
X58420000Y-114300000D01*
X74982500Y-118302500D02*
X72582500Y-118302500D01*
%TO.N,Net-(J2-Pin_2)*%
X60037500Y-110682500D02*
X58420000Y-112300000D01*
X67362500Y-110682500D02*
X60037500Y-110682500D01*
%TD*%
M02*
