%TF.GenerationSoftware,KiCad,Pcbnew,7.0.2*%
%TF.CreationDate,2023-06-03T11:17:19+05:30*%
%TF.ProjectId,gerb,67657262-2e6b-4696-9361-645f70636258,rev?*%
%TF.SameCoordinates,Original*%
%TF.FileFunction,Legend,Top*%
%TF.FilePolarity,Positive*%
%FSLAX46Y46*%
G04 Gerber Fmt 4.6, Leading zero omitted, Abs format (unit mm)*
G04 Created by KiCad (PCBNEW 7.0.2) date 2023-06-03 11:17:19*
%MOMM*%
%LPD*%
G01*
G04 APERTURE LIST*
%ADD10C,0.150000*%
%ADD11C,0.120000*%
%ADD12C,0.127000*%
%ADD13C,0.200000*%
G04 APERTURE END LIST*
D10*
X89138095Y-20197619D02*
X89138095Y-19197619D01*
X89138095Y-19197619D02*
X89471428Y-19911904D01*
X89471428Y-19911904D02*
X89804761Y-19197619D01*
X89804761Y-19197619D02*
X89804761Y-20197619D01*
X90280952Y-20197619D02*
X90280952Y-19530952D01*
X90280952Y-19197619D02*
X90233333Y-19245238D01*
X90233333Y-19245238D02*
X90280952Y-19292857D01*
X90280952Y-19292857D02*
X90328571Y-19245238D01*
X90328571Y-19245238D02*
X90280952Y-19197619D01*
X90280952Y-19197619D02*
X90280952Y-19292857D01*
X91185713Y-20150000D02*
X91090475Y-20197619D01*
X91090475Y-20197619D02*
X90899999Y-20197619D01*
X90899999Y-20197619D02*
X90804761Y-20150000D01*
X90804761Y-20150000D02*
X90757142Y-20102380D01*
X90757142Y-20102380D02*
X90709523Y-20007142D01*
X90709523Y-20007142D02*
X90709523Y-19721428D01*
X90709523Y-19721428D02*
X90757142Y-19626190D01*
X90757142Y-19626190D02*
X90804761Y-19578571D01*
X90804761Y-19578571D02*
X90899999Y-19530952D01*
X90899999Y-19530952D02*
X91090475Y-19530952D01*
X91090475Y-19530952D02*
X91185713Y-19578571D01*
X91614285Y-20197619D02*
X91614285Y-19530952D01*
X91614285Y-19721428D02*
X91661904Y-19626190D01*
X91661904Y-19626190D02*
X91709523Y-19578571D01*
X91709523Y-19578571D02*
X91804761Y-19530952D01*
X91804761Y-19530952D02*
X91899999Y-19530952D01*
X92376190Y-20197619D02*
X92280952Y-20150000D01*
X92280952Y-20150000D02*
X92233333Y-20102380D01*
X92233333Y-20102380D02*
X92185714Y-20007142D01*
X92185714Y-20007142D02*
X92185714Y-19721428D01*
X92185714Y-19721428D02*
X92233333Y-19626190D01*
X92233333Y-19626190D02*
X92280952Y-19578571D01*
X92280952Y-19578571D02*
X92376190Y-19530952D01*
X92376190Y-19530952D02*
X92519047Y-19530952D01*
X92519047Y-19530952D02*
X92614285Y-19578571D01*
X92614285Y-19578571D02*
X92661904Y-19626190D01*
X92661904Y-19626190D02*
X92709523Y-19721428D01*
X92709523Y-19721428D02*
X92709523Y-20007142D01*
X92709523Y-20007142D02*
X92661904Y-20102380D01*
X92661904Y-20102380D02*
X92614285Y-20150000D01*
X92614285Y-20150000D02*
X92519047Y-20197619D01*
X92519047Y-20197619D02*
X92376190Y-20197619D01*
X93900000Y-20197619D02*
X93900000Y-19197619D01*
X93900000Y-19197619D02*
X94280952Y-19197619D01*
X94280952Y-19197619D02*
X94376190Y-19245238D01*
X94376190Y-19245238D02*
X94423809Y-19292857D01*
X94423809Y-19292857D02*
X94471428Y-19388095D01*
X94471428Y-19388095D02*
X94471428Y-19530952D01*
X94471428Y-19530952D02*
X94423809Y-19626190D01*
X94423809Y-19626190D02*
X94376190Y-19673809D01*
X94376190Y-19673809D02*
X94280952Y-19721428D01*
X94280952Y-19721428D02*
X93900000Y-19721428D01*
X94900000Y-20197619D02*
X94900000Y-19530952D01*
X94900000Y-19721428D02*
X94947619Y-19626190D01*
X94947619Y-19626190D02*
X94995238Y-19578571D01*
X94995238Y-19578571D02*
X95090476Y-19530952D01*
X95090476Y-19530952D02*
X95185714Y-19530952D01*
X95661905Y-20197619D02*
X95566667Y-20150000D01*
X95566667Y-20150000D02*
X95519048Y-20102380D01*
X95519048Y-20102380D02*
X95471429Y-20007142D01*
X95471429Y-20007142D02*
X95471429Y-19721428D01*
X95471429Y-19721428D02*
X95519048Y-19626190D01*
X95519048Y-19626190D02*
X95566667Y-19578571D01*
X95566667Y-19578571D02*
X95661905Y-19530952D01*
X95661905Y-19530952D02*
X95804762Y-19530952D01*
X95804762Y-19530952D02*
X95900000Y-19578571D01*
X95900000Y-19578571D02*
X95947619Y-19626190D01*
X95947619Y-19626190D02*
X95995238Y-19721428D01*
X95995238Y-19721428D02*
X95995238Y-20007142D01*
X95995238Y-20007142D02*
X95947619Y-20102380D01*
X95947619Y-20102380D02*
X95900000Y-20150000D01*
X95900000Y-20150000D02*
X95804762Y-20197619D01*
X95804762Y-20197619D02*
X95661905Y-20197619D01*
X96423810Y-19530952D02*
X96423810Y-20388095D01*
X96423810Y-20388095D02*
X96376191Y-20483333D01*
X96376191Y-20483333D02*
X96280953Y-20530952D01*
X96280953Y-20530952D02*
X96233334Y-20530952D01*
X96423810Y-19197619D02*
X96376191Y-19245238D01*
X96376191Y-19245238D02*
X96423810Y-19292857D01*
X96423810Y-19292857D02*
X96471429Y-19245238D01*
X96471429Y-19245238D02*
X96423810Y-19197619D01*
X96423810Y-19197619D02*
X96423810Y-19292857D01*
X97280952Y-20150000D02*
X97185714Y-20197619D01*
X97185714Y-20197619D02*
X96995238Y-20197619D01*
X96995238Y-20197619D02*
X96900000Y-20150000D01*
X96900000Y-20150000D02*
X96852381Y-20054761D01*
X96852381Y-20054761D02*
X96852381Y-19673809D01*
X96852381Y-19673809D02*
X96900000Y-19578571D01*
X96900000Y-19578571D02*
X96995238Y-19530952D01*
X96995238Y-19530952D02*
X97185714Y-19530952D01*
X97185714Y-19530952D02*
X97280952Y-19578571D01*
X97280952Y-19578571D02*
X97328571Y-19673809D01*
X97328571Y-19673809D02*
X97328571Y-19769047D01*
X97328571Y-19769047D02*
X96852381Y-19864285D01*
X98185714Y-20150000D02*
X98090476Y-20197619D01*
X98090476Y-20197619D02*
X97900000Y-20197619D01*
X97900000Y-20197619D02*
X97804762Y-20150000D01*
X97804762Y-20150000D02*
X97757143Y-20102380D01*
X97757143Y-20102380D02*
X97709524Y-20007142D01*
X97709524Y-20007142D02*
X97709524Y-19721428D01*
X97709524Y-19721428D02*
X97757143Y-19626190D01*
X97757143Y-19626190D02*
X97804762Y-19578571D01*
X97804762Y-19578571D02*
X97900000Y-19530952D01*
X97900000Y-19530952D02*
X98090476Y-19530952D01*
X98090476Y-19530952D02*
X98185714Y-19578571D01*
X98471429Y-19530952D02*
X98852381Y-19530952D01*
X98614286Y-19197619D02*
X98614286Y-20054761D01*
X98614286Y-20054761D02*
X98661905Y-20150000D01*
X98661905Y-20150000D02*
X98757143Y-20197619D01*
X98757143Y-20197619D02*
X98852381Y-20197619D01*
X51609523Y-114082380D02*
X51561904Y-114130000D01*
X51561904Y-114130000D02*
X51419047Y-114177619D01*
X51419047Y-114177619D02*
X51323809Y-114177619D01*
X51323809Y-114177619D02*
X51180952Y-114130000D01*
X51180952Y-114130000D02*
X51085714Y-114034761D01*
X51085714Y-114034761D02*
X51038095Y-113939523D01*
X51038095Y-113939523D02*
X50990476Y-113749047D01*
X50990476Y-113749047D02*
X50990476Y-113606190D01*
X50990476Y-113606190D02*
X51038095Y-113415714D01*
X51038095Y-113415714D02*
X51085714Y-113320476D01*
X51085714Y-113320476D02*
X51180952Y-113225238D01*
X51180952Y-113225238D02*
X51323809Y-113177619D01*
X51323809Y-113177619D02*
X51419047Y-113177619D01*
X51419047Y-113177619D02*
X51561904Y-113225238D01*
X51561904Y-113225238D02*
X51609523Y-113272857D01*
X52038095Y-114177619D02*
X52038095Y-113177619D01*
X53085713Y-114177619D02*
X52752380Y-113701428D01*
X52514285Y-114177619D02*
X52514285Y-113177619D01*
X52514285Y-113177619D02*
X52895237Y-113177619D01*
X52895237Y-113177619D02*
X52990475Y-113225238D01*
X52990475Y-113225238D02*
X53038094Y-113272857D01*
X53038094Y-113272857D02*
X53085713Y-113368095D01*
X53085713Y-113368095D02*
X53085713Y-113510952D01*
X53085713Y-113510952D02*
X53038094Y-113606190D01*
X53038094Y-113606190D02*
X52990475Y-113653809D01*
X52990475Y-113653809D02*
X52895237Y-113701428D01*
X52895237Y-113701428D02*
X52514285Y-113701428D01*
X54085713Y-114082380D02*
X54038094Y-114130000D01*
X54038094Y-114130000D02*
X53895237Y-114177619D01*
X53895237Y-114177619D02*
X53799999Y-114177619D01*
X53799999Y-114177619D02*
X53657142Y-114130000D01*
X53657142Y-114130000D02*
X53561904Y-114034761D01*
X53561904Y-114034761D02*
X53514285Y-113939523D01*
X53514285Y-113939523D02*
X53466666Y-113749047D01*
X53466666Y-113749047D02*
X53466666Y-113606190D01*
X53466666Y-113606190D02*
X53514285Y-113415714D01*
X53514285Y-113415714D02*
X53561904Y-113320476D01*
X53561904Y-113320476D02*
X53657142Y-113225238D01*
X53657142Y-113225238D02*
X53799999Y-113177619D01*
X53799999Y-113177619D02*
X53895237Y-113177619D01*
X53895237Y-113177619D02*
X54038094Y-113225238D01*
X54038094Y-113225238D02*
X54085713Y-113272857D01*
X54514285Y-113177619D02*
X54514285Y-113987142D01*
X54514285Y-113987142D02*
X54561904Y-114082380D01*
X54561904Y-114082380D02*
X54609523Y-114130000D01*
X54609523Y-114130000D02*
X54704761Y-114177619D01*
X54704761Y-114177619D02*
X54895237Y-114177619D01*
X54895237Y-114177619D02*
X54990475Y-114130000D01*
X54990475Y-114130000D02*
X55038094Y-114082380D01*
X55038094Y-114082380D02*
X55085713Y-113987142D01*
X55085713Y-113987142D02*
X55085713Y-113177619D01*
X55561904Y-114177619D02*
X55561904Y-113177619D01*
X55895237Y-113177619D02*
X56466665Y-113177619D01*
X56180951Y-114177619D02*
X56180951Y-113177619D01*
X51038095Y-104017619D02*
X51038095Y-103017619D01*
X51038095Y-103017619D02*
X51419047Y-103017619D01*
X51419047Y-103017619D02*
X51514285Y-103065238D01*
X51514285Y-103065238D02*
X51561904Y-103112857D01*
X51561904Y-103112857D02*
X51609523Y-103208095D01*
X51609523Y-103208095D02*
X51609523Y-103350952D01*
X51609523Y-103350952D02*
X51561904Y-103446190D01*
X51561904Y-103446190D02*
X51514285Y-103493809D01*
X51514285Y-103493809D02*
X51419047Y-103541428D01*
X51419047Y-103541428D02*
X51038095Y-103541428D01*
X52228571Y-103017619D02*
X52419047Y-103017619D01*
X52419047Y-103017619D02*
X52514285Y-103065238D01*
X52514285Y-103065238D02*
X52609523Y-103160476D01*
X52609523Y-103160476D02*
X52657142Y-103350952D01*
X52657142Y-103350952D02*
X52657142Y-103684285D01*
X52657142Y-103684285D02*
X52609523Y-103874761D01*
X52609523Y-103874761D02*
X52514285Y-103970000D01*
X52514285Y-103970000D02*
X52419047Y-104017619D01*
X52419047Y-104017619D02*
X52228571Y-104017619D01*
X52228571Y-104017619D02*
X52133333Y-103970000D01*
X52133333Y-103970000D02*
X52038095Y-103874761D01*
X52038095Y-103874761D02*
X51990476Y-103684285D01*
X51990476Y-103684285D02*
X51990476Y-103350952D01*
X51990476Y-103350952D02*
X52038095Y-103160476D01*
X52038095Y-103160476D02*
X52133333Y-103065238D01*
X52133333Y-103065238D02*
X52228571Y-103017619D01*
X52990476Y-103017619D02*
X53228571Y-104017619D01*
X53228571Y-104017619D02*
X53419047Y-103303333D01*
X53419047Y-103303333D02*
X53609523Y-104017619D01*
X53609523Y-104017619D02*
X53847619Y-103017619D01*
X54228571Y-103493809D02*
X54561904Y-103493809D01*
X54704761Y-104017619D02*
X54228571Y-104017619D01*
X54228571Y-104017619D02*
X54228571Y-103017619D01*
X54228571Y-103017619D02*
X54704761Y-103017619D01*
X55704761Y-104017619D02*
X55371428Y-103541428D01*
X55133333Y-104017619D02*
X55133333Y-103017619D01*
X55133333Y-103017619D02*
X55514285Y-103017619D01*
X55514285Y-103017619D02*
X55609523Y-103065238D01*
X55609523Y-103065238D02*
X55657142Y-103112857D01*
X55657142Y-103112857D02*
X55704761Y-103208095D01*
X55704761Y-103208095D02*
X55704761Y-103350952D01*
X55704761Y-103350952D02*
X55657142Y-103446190D01*
X55657142Y-103446190D02*
X55609523Y-103493809D01*
X55609523Y-103493809D02*
X55514285Y-103541428D01*
X55514285Y-103541428D02*
X55133333Y-103541428D01*
X78978095Y-27817619D02*
X78978095Y-26817619D01*
X78978095Y-26817619D02*
X79216190Y-26817619D01*
X79216190Y-26817619D02*
X79359047Y-26865238D01*
X79359047Y-26865238D02*
X79454285Y-26960476D01*
X79454285Y-26960476D02*
X79501904Y-27055714D01*
X79501904Y-27055714D02*
X79549523Y-27246190D01*
X79549523Y-27246190D02*
X79549523Y-27389047D01*
X79549523Y-27389047D02*
X79501904Y-27579523D01*
X79501904Y-27579523D02*
X79454285Y-27674761D01*
X79454285Y-27674761D02*
X79359047Y-27770000D01*
X79359047Y-27770000D02*
X79216190Y-27817619D01*
X79216190Y-27817619D02*
X78978095Y-27817619D01*
X80359047Y-27770000D02*
X80263809Y-27817619D01*
X80263809Y-27817619D02*
X80073333Y-27817619D01*
X80073333Y-27817619D02*
X79978095Y-27770000D01*
X79978095Y-27770000D02*
X79930476Y-27674761D01*
X79930476Y-27674761D02*
X79930476Y-27293809D01*
X79930476Y-27293809D02*
X79978095Y-27198571D01*
X79978095Y-27198571D02*
X80073333Y-27150952D01*
X80073333Y-27150952D02*
X80263809Y-27150952D01*
X80263809Y-27150952D02*
X80359047Y-27198571D01*
X80359047Y-27198571D02*
X80406666Y-27293809D01*
X80406666Y-27293809D02*
X80406666Y-27389047D01*
X80406666Y-27389047D02*
X79930476Y-27484285D01*
X80787619Y-27770000D02*
X80882857Y-27817619D01*
X80882857Y-27817619D02*
X81073333Y-27817619D01*
X81073333Y-27817619D02*
X81168571Y-27770000D01*
X81168571Y-27770000D02*
X81216190Y-27674761D01*
X81216190Y-27674761D02*
X81216190Y-27627142D01*
X81216190Y-27627142D02*
X81168571Y-27531904D01*
X81168571Y-27531904D02*
X81073333Y-27484285D01*
X81073333Y-27484285D02*
X80930476Y-27484285D01*
X80930476Y-27484285D02*
X80835238Y-27436666D01*
X80835238Y-27436666D02*
X80787619Y-27341428D01*
X80787619Y-27341428D02*
X80787619Y-27293809D01*
X80787619Y-27293809D02*
X80835238Y-27198571D01*
X80835238Y-27198571D02*
X80930476Y-27150952D01*
X80930476Y-27150952D02*
X81073333Y-27150952D01*
X81073333Y-27150952D02*
X81168571Y-27198571D01*
X81644762Y-27817619D02*
X81644762Y-27150952D01*
X81644762Y-26817619D02*
X81597143Y-26865238D01*
X81597143Y-26865238D02*
X81644762Y-26912857D01*
X81644762Y-26912857D02*
X81692381Y-26865238D01*
X81692381Y-26865238D02*
X81644762Y-26817619D01*
X81644762Y-26817619D02*
X81644762Y-26912857D01*
X82549523Y-27150952D02*
X82549523Y-27960476D01*
X82549523Y-27960476D02*
X82501904Y-28055714D01*
X82501904Y-28055714D02*
X82454285Y-28103333D01*
X82454285Y-28103333D02*
X82359047Y-28150952D01*
X82359047Y-28150952D02*
X82216190Y-28150952D01*
X82216190Y-28150952D02*
X82120952Y-28103333D01*
X82549523Y-27770000D02*
X82454285Y-27817619D01*
X82454285Y-27817619D02*
X82263809Y-27817619D01*
X82263809Y-27817619D02*
X82168571Y-27770000D01*
X82168571Y-27770000D02*
X82120952Y-27722380D01*
X82120952Y-27722380D02*
X82073333Y-27627142D01*
X82073333Y-27627142D02*
X82073333Y-27341428D01*
X82073333Y-27341428D02*
X82120952Y-27246190D01*
X82120952Y-27246190D02*
X82168571Y-27198571D01*
X82168571Y-27198571D02*
X82263809Y-27150952D01*
X82263809Y-27150952D02*
X82454285Y-27150952D01*
X82454285Y-27150952D02*
X82549523Y-27198571D01*
X83025714Y-27150952D02*
X83025714Y-27817619D01*
X83025714Y-27246190D02*
X83073333Y-27198571D01*
X83073333Y-27198571D02*
X83168571Y-27150952D01*
X83168571Y-27150952D02*
X83311428Y-27150952D01*
X83311428Y-27150952D02*
X83406666Y-27198571D01*
X83406666Y-27198571D02*
X83454285Y-27293809D01*
X83454285Y-27293809D02*
X83454285Y-27817619D01*
X84311428Y-27770000D02*
X84216190Y-27817619D01*
X84216190Y-27817619D02*
X84025714Y-27817619D01*
X84025714Y-27817619D02*
X83930476Y-27770000D01*
X83930476Y-27770000D02*
X83882857Y-27674761D01*
X83882857Y-27674761D02*
X83882857Y-27293809D01*
X83882857Y-27293809D02*
X83930476Y-27198571D01*
X83930476Y-27198571D02*
X84025714Y-27150952D01*
X84025714Y-27150952D02*
X84216190Y-27150952D01*
X84216190Y-27150952D02*
X84311428Y-27198571D01*
X84311428Y-27198571D02*
X84359047Y-27293809D01*
X84359047Y-27293809D02*
X84359047Y-27389047D01*
X84359047Y-27389047D02*
X83882857Y-27484285D01*
X85216190Y-27817619D02*
X85216190Y-26817619D01*
X85216190Y-27770000D02*
X85120952Y-27817619D01*
X85120952Y-27817619D02*
X84930476Y-27817619D01*
X84930476Y-27817619D02*
X84835238Y-27770000D01*
X84835238Y-27770000D02*
X84787619Y-27722380D01*
X84787619Y-27722380D02*
X84740000Y-27627142D01*
X84740000Y-27627142D02*
X84740000Y-27341428D01*
X84740000Y-27341428D02*
X84787619Y-27246190D01*
X84787619Y-27246190D02*
X84835238Y-27198571D01*
X84835238Y-27198571D02*
X84930476Y-27150952D01*
X84930476Y-27150952D02*
X85120952Y-27150952D01*
X85120952Y-27150952D02*
X85216190Y-27198571D01*
X86454286Y-27817619D02*
X86454286Y-26817619D01*
X86454286Y-27198571D02*
X86549524Y-27150952D01*
X86549524Y-27150952D02*
X86740000Y-27150952D01*
X86740000Y-27150952D02*
X86835238Y-27198571D01*
X86835238Y-27198571D02*
X86882857Y-27246190D01*
X86882857Y-27246190D02*
X86930476Y-27341428D01*
X86930476Y-27341428D02*
X86930476Y-27627142D01*
X86930476Y-27627142D02*
X86882857Y-27722380D01*
X86882857Y-27722380D02*
X86835238Y-27770000D01*
X86835238Y-27770000D02*
X86740000Y-27817619D01*
X86740000Y-27817619D02*
X86549524Y-27817619D01*
X86549524Y-27817619D02*
X86454286Y-27770000D01*
X87263810Y-27150952D02*
X87501905Y-27817619D01*
X87740000Y-27150952D02*
X87501905Y-27817619D01*
X87501905Y-27817619D02*
X87406667Y-28055714D01*
X87406667Y-28055714D02*
X87359048Y-28103333D01*
X87359048Y-28103333D02*
X87263810Y-28150952D01*
X88882858Y-27817619D02*
X88882858Y-26817619D01*
X88882858Y-26817619D02*
X89263810Y-26817619D01*
X89263810Y-26817619D02*
X89359048Y-26865238D01*
X89359048Y-26865238D02*
X89406667Y-26912857D01*
X89406667Y-26912857D02*
X89454286Y-27008095D01*
X89454286Y-27008095D02*
X89454286Y-27150952D01*
X89454286Y-27150952D02*
X89406667Y-27246190D01*
X89406667Y-27246190D02*
X89359048Y-27293809D01*
X89359048Y-27293809D02*
X89263810Y-27341428D01*
X89263810Y-27341428D02*
X88882858Y-27341428D01*
X89882858Y-27817619D02*
X89882858Y-27150952D01*
X89882858Y-27341428D02*
X89930477Y-27246190D01*
X89930477Y-27246190D02*
X89978096Y-27198571D01*
X89978096Y-27198571D02*
X90073334Y-27150952D01*
X90073334Y-27150952D02*
X90168572Y-27150952D01*
X90930477Y-27817619D02*
X90930477Y-27293809D01*
X90930477Y-27293809D02*
X90882858Y-27198571D01*
X90882858Y-27198571D02*
X90787620Y-27150952D01*
X90787620Y-27150952D02*
X90597144Y-27150952D01*
X90597144Y-27150952D02*
X90501906Y-27198571D01*
X90930477Y-27770000D02*
X90835239Y-27817619D01*
X90835239Y-27817619D02*
X90597144Y-27817619D01*
X90597144Y-27817619D02*
X90501906Y-27770000D01*
X90501906Y-27770000D02*
X90454287Y-27674761D01*
X90454287Y-27674761D02*
X90454287Y-27579523D01*
X90454287Y-27579523D02*
X90501906Y-27484285D01*
X90501906Y-27484285D02*
X90597144Y-27436666D01*
X90597144Y-27436666D02*
X90835239Y-27436666D01*
X90835239Y-27436666D02*
X90930477Y-27389047D01*
X91263811Y-27150952D02*
X91644763Y-27150952D01*
X91406668Y-26817619D02*
X91406668Y-27674761D01*
X91406668Y-27674761D02*
X91454287Y-27770000D01*
X91454287Y-27770000D02*
X91549525Y-27817619D01*
X91549525Y-27817619D02*
X91644763Y-27817619D01*
X91978097Y-27817619D02*
X91978097Y-27150952D01*
X91978097Y-26817619D02*
X91930478Y-26865238D01*
X91930478Y-26865238D02*
X91978097Y-26912857D01*
X91978097Y-26912857D02*
X92025716Y-26865238D01*
X92025716Y-26865238D02*
X91978097Y-26817619D01*
X91978097Y-26817619D02*
X91978097Y-26912857D01*
X92454287Y-27817619D02*
X92454287Y-26817619D01*
X92549525Y-27436666D02*
X92835239Y-27817619D01*
X92835239Y-27150952D02*
X92454287Y-27531904D01*
X93311430Y-27770000D02*
X93311430Y-27817619D01*
X93311430Y-27817619D02*
X93263811Y-27912857D01*
X93263811Y-27912857D02*
X93216192Y-27960476D01*
X93740001Y-27817619D02*
X93740001Y-26817619D01*
X93740001Y-26817619D02*
X94311429Y-27817619D01*
X94311429Y-27817619D02*
X94311429Y-26817619D01*
X94787620Y-27817619D02*
X94787620Y-27150952D01*
X94787620Y-26817619D02*
X94740001Y-26865238D01*
X94740001Y-26865238D02*
X94787620Y-26912857D01*
X94787620Y-26912857D02*
X94835239Y-26865238D01*
X94835239Y-26865238D02*
X94787620Y-26817619D01*
X94787620Y-26817619D02*
X94787620Y-26912857D01*
X95263810Y-27817619D02*
X95263810Y-27150952D01*
X95263810Y-27341428D02*
X95311429Y-27246190D01*
X95311429Y-27246190D02*
X95359048Y-27198571D01*
X95359048Y-27198571D02*
X95454286Y-27150952D01*
X95454286Y-27150952D02*
X95549524Y-27150952D01*
X96311429Y-27817619D02*
X96311429Y-27293809D01*
X96311429Y-27293809D02*
X96263810Y-27198571D01*
X96263810Y-27198571D02*
X96168572Y-27150952D01*
X96168572Y-27150952D02*
X95978096Y-27150952D01*
X95978096Y-27150952D02*
X95882858Y-27198571D01*
X96311429Y-27770000D02*
X96216191Y-27817619D01*
X96216191Y-27817619D02*
X95978096Y-27817619D01*
X95978096Y-27817619D02*
X95882858Y-27770000D01*
X95882858Y-27770000D02*
X95835239Y-27674761D01*
X95835239Y-27674761D02*
X95835239Y-27579523D01*
X95835239Y-27579523D02*
X95882858Y-27484285D01*
X95882858Y-27484285D02*
X95978096Y-27436666D01*
X95978096Y-27436666D02*
X96216191Y-27436666D01*
X96216191Y-27436666D02*
X96311429Y-27389047D01*
X96787620Y-27150952D02*
X96787620Y-27817619D01*
X96787620Y-27246190D02*
X96835239Y-27198571D01*
X96835239Y-27198571D02*
X96930477Y-27150952D01*
X96930477Y-27150952D02*
X97073334Y-27150952D01*
X97073334Y-27150952D02*
X97168572Y-27198571D01*
X97168572Y-27198571D02*
X97216191Y-27293809D01*
X97216191Y-27293809D02*
X97216191Y-27817619D01*
X97692382Y-27150952D02*
X97692382Y-28008095D01*
X97692382Y-28008095D02*
X97644763Y-28103333D01*
X97644763Y-28103333D02*
X97549525Y-28150952D01*
X97549525Y-28150952D02*
X97501906Y-28150952D01*
X97692382Y-26817619D02*
X97644763Y-26865238D01*
X97644763Y-26865238D02*
X97692382Y-26912857D01*
X97692382Y-26912857D02*
X97740001Y-26865238D01*
X97740001Y-26865238D02*
X97692382Y-26817619D01*
X97692382Y-26817619D02*
X97692382Y-26912857D01*
X98597143Y-27817619D02*
X98597143Y-27293809D01*
X98597143Y-27293809D02*
X98549524Y-27198571D01*
X98549524Y-27198571D02*
X98454286Y-27150952D01*
X98454286Y-27150952D02*
X98263810Y-27150952D01*
X98263810Y-27150952D02*
X98168572Y-27198571D01*
X98597143Y-27770000D02*
X98501905Y-27817619D01*
X98501905Y-27817619D02*
X98263810Y-27817619D01*
X98263810Y-27817619D02*
X98168572Y-27770000D01*
X98168572Y-27770000D02*
X98120953Y-27674761D01*
X98120953Y-27674761D02*
X98120953Y-27579523D01*
X98120953Y-27579523D02*
X98168572Y-27484285D01*
X98168572Y-27484285D02*
X98263810Y-27436666D01*
X98263810Y-27436666D02*
X98501905Y-27436666D01*
X98501905Y-27436666D02*
X98597143Y-27389047D01*
X99073334Y-27150952D02*
X99073334Y-27817619D01*
X99073334Y-27246190D02*
X99120953Y-27198571D01*
X99120953Y-27198571D02*
X99216191Y-27150952D01*
X99216191Y-27150952D02*
X99359048Y-27150952D01*
X99359048Y-27150952D02*
X99454286Y-27198571D01*
X99454286Y-27198571D02*
X99501905Y-27293809D01*
X99501905Y-27293809D02*
X99501905Y-27817619D01*
X100025715Y-27770000D02*
X100025715Y-27817619D01*
X100025715Y-27817619D02*
X99978096Y-27912857D01*
X99978096Y-27912857D02*
X99930477Y-27960476D01*
X100454286Y-27817619D02*
X100454286Y-26817619D01*
X101025714Y-27817619D02*
X100597143Y-27246190D01*
X101025714Y-26817619D02*
X100454286Y-27389047D01*
X101406667Y-27770000D02*
X101501905Y-27817619D01*
X101501905Y-27817619D02*
X101692381Y-27817619D01*
X101692381Y-27817619D02*
X101787619Y-27770000D01*
X101787619Y-27770000D02*
X101835238Y-27674761D01*
X101835238Y-27674761D02*
X101835238Y-27627142D01*
X101835238Y-27627142D02*
X101787619Y-27531904D01*
X101787619Y-27531904D02*
X101692381Y-27484285D01*
X101692381Y-27484285D02*
X101549524Y-27484285D01*
X101549524Y-27484285D02*
X101454286Y-27436666D01*
X101454286Y-27436666D02*
X101406667Y-27341428D01*
X101406667Y-27341428D02*
X101406667Y-27293809D01*
X101406667Y-27293809D02*
X101454286Y-27198571D01*
X101454286Y-27198571D02*
X101549524Y-27150952D01*
X101549524Y-27150952D02*
X101692381Y-27150952D01*
X101692381Y-27150952D02*
X101787619Y-27198571D01*
X102263810Y-27817619D02*
X102263810Y-26817619D01*
X102692381Y-27817619D02*
X102692381Y-27293809D01*
X102692381Y-27293809D02*
X102644762Y-27198571D01*
X102644762Y-27198571D02*
X102549524Y-27150952D01*
X102549524Y-27150952D02*
X102406667Y-27150952D01*
X102406667Y-27150952D02*
X102311429Y-27198571D01*
X102311429Y-27198571D02*
X102263810Y-27246190D01*
X103168572Y-27817619D02*
X103168572Y-27150952D01*
X103168572Y-26817619D02*
X103120953Y-26865238D01*
X103120953Y-26865238D02*
X103168572Y-26912857D01*
X103168572Y-26912857D02*
X103216191Y-26865238D01*
X103216191Y-26865238D02*
X103168572Y-26817619D01*
X103168572Y-26817619D02*
X103168572Y-26912857D01*
X103501905Y-27150952D02*
X103882857Y-27150952D01*
X103644762Y-26817619D02*
X103644762Y-27674761D01*
X103644762Y-27674761D02*
X103692381Y-27770000D01*
X103692381Y-27770000D02*
X103787619Y-27817619D01*
X103787619Y-27817619D02*
X103882857Y-27817619D01*
X104216191Y-27817619D02*
X104216191Y-27150952D01*
X104216191Y-26817619D02*
X104168572Y-26865238D01*
X104168572Y-26865238D02*
X104216191Y-26912857D01*
X104216191Y-26912857D02*
X104263810Y-26865238D01*
X104263810Y-26865238D02*
X104216191Y-26817619D01*
X104216191Y-26817619D02*
X104216191Y-26912857D01*
X104692381Y-27150952D02*
X104692381Y-28008095D01*
X104692381Y-28008095D02*
X104644762Y-28103333D01*
X104644762Y-28103333D02*
X104549524Y-28150952D01*
X104549524Y-28150952D02*
X104501905Y-28150952D01*
X104692381Y-26817619D02*
X104644762Y-26865238D01*
X104644762Y-26865238D02*
X104692381Y-26912857D01*
X104692381Y-26912857D02*
X104740000Y-26865238D01*
X104740000Y-26865238D02*
X104692381Y-26817619D01*
X104692381Y-26817619D02*
X104692381Y-26912857D01*
X105216190Y-27770000D02*
X105216190Y-27817619D01*
X105216190Y-27817619D02*
X105168571Y-27912857D01*
X105168571Y-27912857D02*
X105120952Y-27960476D01*
X106120951Y-27817619D02*
X105644761Y-27817619D01*
X105644761Y-27817619D02*
X105644761Y-26817619D01*
X106882856Y-27817619D02*
X106882856Y-27293809D01*
X106882856Y-27293809D02*
X106835237Y-27198571D01*
X106835237Y-27198571D02*
X106739999Y-27150952D01*
X106739999Y-27150952D02*
X106549523Y-27150952D01*
X106549523Y-27150952D02*
X106454285Y-27198571D01*
X106882856Y-27770000D02*
X106787618Y-27817619D01*
X106787618Y-27817619D02*
X106549523Y-27817619D01*
X106549523Y-27817619D02*
X106454285Y-27770000D01*
X106454285Y-27770000D02*
X106406666Y-27674761D01*
X106406666Y-27674761D02*
X106406666Y-27579523D01*
X106406666Y-27579523D02*
X106454285Y-27484285D01*
X106454285Y-27484285D02*
X106549523Y-27436666D01*
X106549523Y-27436666D02*
X106787618Y-27436666D01*
X106787618Y-27436666D02*
X106882856Y-27389047D01*
X107263809Y-27817619D02*
X107787618Y-27150952D01*
X107263809Y-27150952D02*
X107787618Y-27817619D01*
X108168571Y-27817619D02*
X108168571Y-27150952D01*
X108168571Y-27246190D02*
X108216190Y-27198571D01*
X108216190Y-27198571D02*
X108311428Y-27150952D01*
X108311428Y-27150952D02*
X108454285Y-27150952D01*
X108454285Y-27150952D02*
X108549523Y-27198571D01*
X108549523Y-27198571D02*
X108597142Y-27293809D01*
X108597142Y-27293809D02*
X108597142Y-27817619D01*
X108597142Y-27293809D02*
X108644761Y-27198571D01*
X108644761Y-27198571D02*
X108739999Y-27150952D01*
X108739999Y-27150952D02*
X108882856Y-27150952D01*
X108882856Y-27150952D02*
X108978095Y-27198571D01*
X108978095Y-27198571D02*
X109025714Y-27293809D01*
X109025714Y-27293809D02*
X109025714Y-27817619D01*
X109501904Y-27817619D02*
X109501904Y-27150952D01*
X109501904Y-26817619D02*
X109454285Y-26865238D01*
X109454285Y-26865238D02*
X109501904Y-26912857D01*
X109501904Y-26912857D02*
X109549523Y-26865238D01*
X109549523Y-26865238D02*
X109501904Y-26817619D01*
X109501904Y-26817619D02*
X109501904Y-26912857D01*
X84058095Y-22737619D02*
X84058095Y-21737619D01*
X84058095Y-21737619D02*
X84439047Y-21737619D01*
X84439047Y-21737619D02*
X84534285Y-21785238D01*
X84534285Y-21785238D02*
X84581904Y-21832857D01*
X84581904Y-21832857D02*
X84629523Y-21928095D01*
X84629523Y-21928095D02*
X84629523Y-22070952D01*
X84629523Y-22070952D02*
X84581904Y-22166190D01*
X84581904Y-22166190D02*
X84534285Y-22213809D01*
X84534285Y-22213809D02*
X84439047Y-22261428D01*
X84439047Y-22261428D02*
X84058095Y-22261428D01*
X85486666Y-22737619D02*
X85486666Y-22213809D01*
X85486666Y-22213809D02*
X85439047Y-22118571D01*
X85439047Y-22118571D02*
X85343809Y-22070952D01*
X85343809Y-22070952D02*
X85153333Y-22070952D01*
X85153333Y-22070952D02*
X85058095Y-22118571D01*
X85486666Y-22690000D02*
X85391428Y-22737619D01*
X85391428Y-22737619D02*
X85153333Y-22737619D01*
X85153333Y-22737619D02*
X85058095Y-22690000D01*
X85058095Y-22690000D02*
X85010476Y-22594761D01*
X85010476Y-22594761D02*
X85010476Y-22499523D01*
X85010476Y-22499523D02*
X85058095Y-22404285D01*
X85058095Y-22404285D02*
X85153333Y-22356666D01*
X85153333Y-22356666D02*
X85391428Y-22356666D01*
X85391428Y-22356666D02*
X85486666Y-22309047D01*
X85915238Y-22690000D02*
X86010476Y-22737619D01*
X86010476Y-22737619D02*
X86200952Y-22737619D01*
X86200952Y-22737619D02*
X86296190Y-22690000D01*
X86296190Y-22690000D02*
X86343809Y-22594761D01*
X86343809Y-22594761D02*
X86343809Y-22547142D01*
X86343809Y-22547142D02*
X86296190Y-22451904D01*
X86296190Y-22451904D02*
X86200952Y-22404285D01*
X86200952Y-22404285D02*
X86058095Y-22404285D01*
X86058095Y-22404285D02*
X85962857Y-22356666D01*
X85962857Y-22356666D02*
X85915238Y-22261428D01*
X85915238Y-22261428D02*
X85915238Y-22213809D01*
X85915238Y-22213809D02*
X85962857Y-22118571D01*
X85962857Y-22118571D02*
X86058095Y-22070952D01*
X86058095Y-22070952D02*
X86200952Y-22070952D01*
X86200952Y-22070952D02*
X86296190Y-22118571D01*
X86724762Y-22690000D02*
X86820000Y-22737619D01*
X86820000Y-22737619D02*
X87010476Y-22737619D01*
X87010476Y-22737619D02*
X87105714Y-22690000D01*
X87105714Y-22690000D02*
X87153333Y-22594761D01*
X87153333Y-22594761D02*
X87153333Y-22547142D01*
X87153333Y-22547142D02*
X87105714Y-22451904D01*
X87105714Y-22451904D02*
X87010476Y-22404285D01*
X87010476Y-22404285D02*
X86867619Y-22404285D01*
X86867619Y-22404285D02*
X86772381Y-22356666D01*
X86772381Y-22356666D02*
X86724762Y-22261428D01*
X86724762Y-22261428D02*
X86724762Y-22213809D01*
X86724762Y-22213809D02*
X86772381Y-22118571D01*
X86772381Y-22118571D02*
X86867619Y-22070952D01*
X86867619Y-22070952D02*
X87010476Y-22070952D01*
X87010476Y-22070952D02*
X87105714Y-22118571D01*
X87486667Y-22070952D02*
X87677143Y-22737619D01*
X87677143Y-22737619D02*
X87867619Y-22261428D01*
X87867619Y-22261428D02*
X88058095Y-22737619D01*
X88058095Y-22737619D02*
X88248571Y-22070952D01*
X88772381Y-22737619D02*
X88677143Y-22690000D01*
X88677143Y-22690000D02*
X88629524Y-22642380D01*
X88629524Y-22642380D02*
X88581905Y-22547142D01*
X88581905Y-22547142D02*
X88581905Y-22261428D01*
X88581905Y-22261428D02*
X88629524Y-22166190D01*
X88629524Y-22166190D02*
X88677143Y-22118571D01*
X88677143Y-22118571D02*
X88772381Y-22070952D01*
X88772381Y-22070952D02*
X88915238Y-22070952D01*
X88915238Y-22070952D02*
X89010476Y-22118571D01*
X89010476Y-22118571D02*
X89058095Y-22166190D01*
X89058095Y-22166190D02*
X89105714Y-22261428D01*
X89105714Y-22261428D02*
X89105714Y-22547142D01*
X89105714Y-22547142D02*
X89058095Y-22642380D01*
X89058095Y-22642380D02*
X89010476Y-22690000D01*
X89010476Y-22690000D02*
X88915238Y-22737619D01*
X88915238Y-22737619D02*
X88772381Y-22737619D01*
X89534286Y-22737619D02*
X89534286Y-22070952D01*
X89534286Y-22261428D02*
X89581905Y-22166190D01*
X89581905Y-22166190D02*
X89629524Y-22118571D01*
X89629524Y-22118571D02*
X89724762Y-22070952D01*
X89724762Y-22070952D02*
X89820000Y-22070952D01*
X90581905Y-22737619D02*
X90581905Y-21737619D01*
X90581905Y-22690000D02*
X90486667Y-22737619D01*
X90486667Y-22737619D02*
X90296191Y-22737619D01*
X90296191Y-22737619D02*
X90200953Y-22690000D01*
X90200953Y-22690000D02*
X90153334Y-22642380D01*
X90153334Y-22642380D02*
X90105715Y-22547142D01*
X90105715Y-22547142D02*
X90105715Y-22261428D01*
X90105715Y-22261428D02*
X90153334Y-22166190D01*
X90153334Y-22166190D02*
X90200953Y-22118571D01*
X90200953Y-22118571D02*
X90296191Y-22070952D01*
X90296191Y-22070952D02*
X90486667Y-22070952D01*
X90486667Y-22070952D02*
X90581905Y-22118571D01*
X91820001Y-22737619D02*
X91820001Y-21737619D01*
X91820001Y-22118571D02*
X91915239Y-22070952D01*
X91915239Y-22070952D02*
X92105715Y-22070952D01*
X92105715Y-22070952D02*
X92200953Y-22118571D01*
X92200953Y-22118571D02*
X92248572Y-22166190D01*
X92248572Y-22166190D02*
X92296191Y-22261428D01*
X92296191Y-22261428D02*
X92296191Y-22547142D01*
X92296191Y-22547142D02*
X92248572Y-22642380D01*
X92248572Y-22642380D02*
X92200953Y-22690000D01*
X92200953Y-22690000D02*
X92105715Y-22737619D01*
X92105715Y-22737619D02*
X91915239Y-22737619D01*
X91915239Y-22737619D02*
X91820001Y-22690000D01*
X93153334Y-22737619D02*
X93153334Y-22213809D01*
X93153334Y-22213809D02*
X93105715Y-22118571D01*
X93105715Y-22118571D02*
X93010477Y-22070952D01*
X93010477Y-22070952D02*
X92820001Y-22070952D01*
X92820001Y-22070952D02*
X92724763Y-22118571D01*
X93153334Y-22690000D02*
X93058096Y-22737619D01*
X93058096Y-22737619D02*
X92820001Y-22737619D01*
X92820001Y-22737619D02*
X92724763Y-22690000D01*
X92724763Y-22690000D02*
X92677144Y-22594761D01*
X92677144Y-22594761D02*
X92677144Y-22499523D01*
X92677144Y-22499523D02*
X92724763Y-22404285D01*
X92724763Y-22404285D02*
X92820001Y-22356666D01*
X92820001Y-22356666D02*
X93058096Y-22356666D01*
X93058096Y-22356666D02*
X93153334Y-22309047D01*
X93581906Y-22690000D02*
X93677144Y-22737619D01*
X93677144Y-22737619D02*
X93867620Y-22737619D01*
X93867620Y-22737619D02*
X93962858Y-22690000D01*
X93962858Y-22690000D02*
X94010477Y-22594761D01*
X94010477Y-22594761D02*
X94010477Y-22547142D01*
X94010477Y-22547142D02*
X93962858Y-22451904D01*
X93962858Y-22451904D02*
X93867620Y-22404285D01*
X93867620Y-22404285D02*
X93724763Y-22404285D01*
X93724763Y-22404285D02*
X93629525Y-22356666D01*
X93629525Y-22356666D02*
X93581906Y-22261428D01*
X93581906Y-22261428D02*
X93581906Y-22213809D01*
X93581906Y-22213809D02*
X93629525Y-22118571D01*
X93629525Y-22118571D02*
X93724763Y-22070952D01*
X93724763Y-22070952D02*
X93867620Y-22070952D01*
X93867620Y-22070952D02*
X93962858Y-22118571D01*
X94820001Y-22690000D02*
X94724763Y-22737619D01*
X94724763Y-22737619D02*
X94534287Y-22737619D01*
X94534287Y-22737619D02*
X94439049Y-22690000D01*
X94439049Y-22690000D02*
X94391430Y-22594761D01*
X94391430Y-22594761D02*
X94391430Y-22213809D01*
X94391430Y-22213809D02*
X94439049Y-22118571D01*
X94439049Y-22118571D02*
X94534287Y-22070952D01*
X94534287Y-22070952D02*
X94724763Y-22070952D01*
X94724763Y-22070952D02*
X94820001Y-22118571D01*
X94820001Y-22118571D02*
X94867620Y-22213809D01*
X94867620Y-22213809D02*
X94867620Y-22309047D01*
X94867620Y-22309047D02*
X94391430Y-22404285D01*
X95724763Y-22737619D02*
X95724763Y-21737619D01*
X95724763Y-22690000D02*
X95629525Y-22737619D01*
X95629525Y-22737619D02*
X95439049Y-22737619D01*
X95439049Y-22737619D02*
X95343811Y-22690000D01*
X95343811Y-22690000D02*
X95296192Y-22642380D01*
X95296192Y-22642380D02*
X95248573Y-22547142D01*
X95248573Y-22547142D02*
X95248573Y-22261428D01*
X95248573Y-22261428D02*
X95296192Y-22166190D01*
X95296192Y-22166190D02*
X95343811Y-22118571D01*
X95343811Y-22118571D02*
X95439049Y-22070952D01*
X95439049Y-22070952D02*
X95629525Y-22070952D01*
X95629525Y-22070952D02*
X95724763Y-22118571D01*
X97391430Y-22690000D02*
X97296192Y-22737619D01*
X97296192Y-22737619D02*
X97105716Y-22737619D01*
X97105716Y-22737619D02*
X97010478Y-22690000D01*
X97010478Y-22690000D02*
X96962859Y-22642380D01*
X96962859Y-22642380D02*
X96915240Y-22547142D01*
X96915240Y-22547142D02*
X96915240Y-22261428D01*
X96915240Y-22261428D02*
X96962859Y-22166190D01*
X96962859Y-22166190D02*
X97010478Y-22118571D01*
X97010478Y-22118571D02*
X97105716Y-22070952D01*
X97105716Y-22070952D02*
X97296192Y-22070952D01*
X97296192Y-22070952D02*
X97391430Y-22118571D01*
X97820002Y-22737619D02*
X97820002Y-22070952D01*
X97820002Y-21737619D02*
X97772383Y-21785238D01*
X97772383Y-21785238D02*
X97820002Y-21832857D01*
X97820002Y-21832857D02*
X97867621Y-21785238D01*
X97867621Y-21785238D02*
X97820002Y-21737619D01*
X97820002Y-21737619D02*
X97820002Y-21832857D01*
X98296192Y-22737619D02*
X98296192Y-22070952D01*
X98296192Y-22261428D02*
X98343811Y-22166190D01*
X98343811Y-22166190D02*
X98391430Y-22118571D01*
X98391430Y-22118571D02*
X98486668Y-22070952D01*
X98486668Y-22070952D02*
X98581906Y-22070952D01*
X99343811Y-22690000D02*
X99248573Y-22737619D01*
X99248573Y-22737619D02*
X99058097Y-22737619D01*
X99058097Y-22737619D02*
X98962859Y-22690000D01*
X98962859Y-22690000D02*
X98915240Y-22642380D01*
X98915240Y-22642380D02*
X98867621Y-22547142D01*
X98867621Y-22547142D02*
X98867621Y-22261428D01*
X98867621Y-22261428D02*
X98915240Y-22166190D01*
X98915240Y-22166190D02*
X98962859Y-22118571D01*
X98962859Y-22118571D02*
X99058097Y-22070952D01*
X99058097Y-22070952D02*
X99248573Y-22070952D01*
X99248573Y-22070952D02*
X99343811Y-22118571D01*
X100200954Y-22070952D02*
X100200954Y-22737619D01*
X99772383Y-22070952D02*
X99772383Y-22594761D01*
X99772383Y-22594761D02*
X99820002Y-22690000D01*
X99820002Y-22690000D02*
X99915240Y-22737619D01*
X99915240Y-22737619D02*
X100058097Y-22737619D01*
X100058097Y-22737619D02*
X100153335Y-22690000D01*
X100153335Y-22690000D02*
X100200954Y-22642380D01*
X100677145Y-22737619D02*
X100677145Y-22070952D01*
X100677145Y-21737619D02*
X100629526Y-21785238D01*
X100629526Y-21785238D02*
X100677145Y-21832857D01*
X100677145Y-21832857D02*
X100724764Y-21785238D01*
X100724764Y-21785238D02*
X100677145Y-21737619D01*
X100677145Y-21737619D02*
X100677145Y-21832857D01*
X101010478Y-22070952D02*
X101391430Y-22070952D01*
X101153335Y-21737619D02*
X101153335Y-22594761D01*
X101153335Y-22594761D02*
X101200954Y-22690000D01*
X101200954Y-22690000D02*
X101296192Y-22737619D01*
X101296192Y-22737619D02*
X101391430Y-22737619D01*
X102486669Y-22737619D02*
X102486669Y-21737619D01*
X102486669Y-22118571D02*
X102581907Y-22070952D01*
X102581907Y-22070952D02*
X102772383Y-22070952D01*
X102772383Y-22070952D02*
X102867621Y-22118571D01*
X102867621Y-22118571D02*
X102915240Y-22166190D01*
X102915240Y-22166190D02*
X102962859Y-22261428D01*
X102962859Y-22261428D02*
X102962859Y-22547142D01*
X102962859Y-22547142D02*
X102915240Y-22642380D01*
X102915240Y-22642380D02*
X102867621Y-22690000D01*
X102867621Y-22690000D02*
X102772383Y-22737619D01*
X102772383Y-22737619D02*
X102581907Y-22737619D01*
X102581907Y-22737619D02*
X102486669Y-22690000D01*
X103391431Y-22737619D02*
X103391431Y-22070952D01*
X103391431Y-22261428D02*
X103439050Y-22166190D01*
X103439050Y-22166190D02*
X103486669Y-22118571D01*
X103486669Y-22118571D02*
X103581907Y-22070952D01*
X103581907Y-22070952D02*
X103677145Y-22070952D01*
X104391431Y-22690000D02*
X104296193Y-22737619D01*
X104296193Y-22737619D02*
X104105717Y-22737619D01*
X104105717Y-22737619D02*
X104010479Y-22690000D01*
X104010479Y-22690000D02*
X103962860Y-22594761D01*
X103962860Y-22594761D02*
X103962860Y-22213809D01*
X103962860Y-22213809D02*
X104010479Y-22118571D01*
X104010479Y-22118571D02*
X104105717Y-22070952D01*
X104105717Y-22070952D02*
X104296193Y-22070952D01*
X104296193Y-22070952D02*
X104391431Y-22118571D01*
X104391431Y-22118571D02*
X104439050Y-22213809D01*
X104439050Y-22213809D02*
X104439050Y-22309047D01*
X104439050Y-22309047D02*
X103962860Y-22404285D01*
X105296193Y-22737619D02*
X105296193Y-22213809D01*
X105296193Y-22213809D02*
X105248574Y-22118571D01*
X105248574Y-22118571D02*
X105153336Y-22070952D01*
X105153336Y-22070952D02*
X104962860Y-22070952D01*
X104962860Y-22070952D02*
X104867622Y-22118571D01*
X105296193Y-22690000D02*
X105200955Y-22737619D01*
X105200955Y-22737619D02*
X104962860Y-22737619D01*
X104962860Y-22737619D02*
X104867622Y-22690000D01*
X104867622Y-22690000D02*
X104820003Y-22594761D01*
X104820003Y-22594761D02*
X104820003Y-22499523D01*
X104820003Y-22499523D02*
X104867622Y-22404285D01*
X104867622Y-22404285D02*
X104962860Y-22356666D01*
X104962860Y-22356666D02*
X105200955Y-22356666D01*
X105200955Y-22356666D02*
X105296193Y-22309047D01*
X105772384Y-22737619D02*
X105772384Y-21737619D01*
X105867622Y-22356666D02*
X106153336Y-22737619D01*
X106153336Y-22070952D02*
X105772384Y-22451904D01*
X106962860Y-22690000D02*
X106867622Y-22737619D01*
X106867622Y-22737619D02*
X106677146Y-22737619D01*
X106677146Y-22737619D02*
X106581908Y-22690000D01*
X106581908Y-22690000D02*
X106534289Y-22594761D01*
X106534289Y-22594761D02*
X106534289Y-22213809D01*
X106534289Y-22213809D02*
X106581908Y-22118571D01*
X106581908Y-22118571D02*
X106677146Y-22070952D01*
X106677146Y-22070952D02*
X106867622Y-22070952D01*
X106867622Y-22070952D02*
X106962860Y-22118571D01*
X106962860Y-22118571D02*
X107010479Y-22213809D01*
X107010479Y-22213809D02*
X107010479Y-22309047D01*
X107010479Y-22309047D02*
X106534289Y-22404285D01*
X107439051Y-22737619D02*
X107439051Y-22070952D01*
X107439051Y-22261428D02*
X107486670Y-22166190D01*
X107486670Y-22166190D02*
X107534289Y-22118571D01*
X107534289Y-22118571D02*
X107629527Y-22070952D01*
X107629527Y-22070952D02*
X107724765Y-22070952D01*
%TO.C,SW1*%
X87226473Y-102015000D02*
X87369330Y-102062619D01*
X87369330Y-102062619D02*
X87607425Y-102062619D01*
X87607425Y-102062619D02*
X87702663Y-102015000D01*
X87702663Y-102015000D02*
X87750282Y-101967380D01*
X87750282Y-101967380D02*
X87797901Y-101872142D01*
X87797901Y-101872142D02*
X87797901Y-101776904D01*
X87797901Y-101776904D02*
X87750282Y-101681666D01*
X87750282Y-101681666D02*
X87702663Y-101634047D01*
X87702663Y-101634047D02*
X87607425Y-101586428D01*
X87607425Y-101586428D02*
X87416949Y-101538809D01*
X87416949Y-101538809D02*
X87321711Y-101491190D01*
X87321711Y-101491190D02*
X87274092Y-101443571D01*
X87274092Y-101443571D02*
X87226473Y-101348333D01*
X87226473Y-101348333D02*
X87226473Y-101253095D01*
X87226473Y-101253095D02*
X87274092Y-101157857D01*
X87274092Y-101157857D02*
X87321711Y-101110238D01*
X87321711Y-101110238D02*
X87416949Y-101062619D01*
X87416949Y-101062619D02*
X87655044Y-101062619D01*
X87655044Y-101062619D02*
X87797901Y-101110238D01*
X88131235Y-101062619D02*
X88369330Y-102062619D01*
X88369330Y-102062619D02*
X88559806Y-101348333D01*
X88559806Y-101348333D02*
X88750282Y-102062619D01*
X88750282Y-102062619D02*
X88988378Y-101062619D01*
X89893139Y-102062619D02*
X89321711Y-102062619D01*
X89607425Y-102062619D02*
X89607425Y-101062619D01*
X89607425Y-101062619D02*
X89512187Y-101205476D01*
X89512187Y-101205476D02*
X89416949Y-101300714D01*
X89416949Y-101300714D02*
X89321711Y-101348333D01*
%TO.C,R5*%
X132542619Y-58586666D02*
X132066428Y-58919999D01*
X132542619Y-59158094D02*
X131542619Y-59158094D01*
X131542619Y-59158094D02*
X131542619Y-58777142D01*
X131542619Y-58777142D02*
X131590238Y-58681904D01*
X131590238Y-58681904D02*
X131637857Y-58634285D01*
X131637857Y-58634285D02*
X131733095Y-58586666D01*
X131733095Y-58586666D02*
X131875952Y-58586666D01*
X131875952Y-58586666D02*
X131971190Y-58634285D01*
X131971190Y-58634285D02*
X132018809Y-58681904D01*
X132018809Y-58681904D02*
X132066428Y-58777142D01*
X132066428Y-58777142D02*
X132066428Y-59158094D01*
X131542619Y-57681904D02*
X131542619Y-58158094D01*
X131542619Y-58158094D02*
X132018809Y-58205713D01*
X132018809Y-58205713D02*
X131971190Y-58158094D01*
X131971190Y-58158094D02*
X131923571Y-58062856D01*
X131923571Y-58062856D02*
X131923571Y-57824761D01*
X131923571Y-57824761D02*
X131971190Y-57729523D01*
X131971190Y-57729523D02*
X132018809Y-57681904D01*
X132018809Y-57681904D02*
X132114047Y-57634285D01*
X132114047Y-57634285D02*
X132352142Y-57634285D01*
X132352142Y-57634285D02*
X132447380Y-57681904D01*
X132447380Y-57681904D02*
X132495000Y-57729523D01*
X132495000Y-57729523D02*
X132542619Y-57824761D01*
X132542619Y-57824761D02*
X132542619Y-58062856D01*
X132542619Y-58062856D02*
X132495000Y-58158094D01*
X132495000Y-58158094D02*
X132447380Y-58205713D01*
%TO.C,C2*%
X81793333Y-109587380D02*
X81745714Y-109635000D01*
X81745714Y-109635000D02*
X81602857Y-109682619D01*
X81602857Y-109682619D02*
X81507619Y-109682619D01*
X81507619Y-109682619D02*
X81364762Y-109635000D01*
X81364762Y-109635000D02*
X81269524Y-109539761D01*
X81269524Y-109539761D02*
X81221905Y-109444523D01*
X81221905Y-109444523D02*
X81174286Y-109254047D01*
X81174286Y-109254047D02*
X81174286Y-109111190D01*
X81174286Y-109111190D02*
X81221905Y-108920714D01*
X81221905Y-108920714D02*
X81269524Y-108825476D01*
X81269524Y-108825476D02*
X81364762Y-108730238D01*
X81364762Y-108730238D02*
X81507619Y-108682619D01*
X81507619Y-108682619D02*
X81602857Y-108682619D01*
X81602857Y-108682619D02*
X81745714Y-108730238D01*
X81745714Y-108730238D02*
X81793333Y-108777857D01*
X82174286Y-108777857D02*
X82221905Y-108730238D01*
X82221905Y-108730238D02*
X82317143Y-108682619D01*
X82317143Y-108682619D02*
X82555238Y-108682619D01*
X82555238Y-108682619D02*
X82650476Y-108730238D01*
X82650476Y-108730238D02*
X82698095Y-108777857D01*
X82698095Y-108777857D02*
X82745714Y-108873095D01*
X82745714Y-108873095D02*
X82745714Y-108968333D01*
X82745714Y-108968333D02*
X82698095Y-109111190D01*
X82698095Y-109111190D02*
X82126667Y-109682619D01*
X82126667Y-109682619D02*
X82745714Y-109682619D01*
%TO.C,R4*%
X127462619Y-58586666D02*
X126986428Y-58919999D01*
X127462619Y-59158094D02*
X126462619Y-59158094D01*
X126462619Y-59158094D02*
X126462619Y-58777142D01*
X126462619Y-58777142D02*
X126510238Y-58681904D01*
X126510238Y-58681904D02*
X126557857Y-58634285D01*
X126557857Y-58634285D02*
X126653095Y-58586666D01*
X126653095Y-58586666D02*
X126795952Y-58586666D01*
X126795952Y-58586666D02*
X126891190Y-58634285D01*
X126891190Y-58634285D02*
X126938809Y-58681904D01*
X126938809Y-58681904D02*
X126986428Y-58777142D01*
X126986428Y-58777142D02*
X126986428Y-59158094D01*
X126795952Y-57729523D02*
X127462619Y-57729523D01*
X126415000Y-57967618D02*
X127129285Y-58205713D01*
X127129285Y-58205713D02*
X127129285Y-57586666D01*
%TO.C,R7*%
X91273333Y-89362619D02*
X90940000Y-88886428D01*
X90701905Y-89362619D02*
X90701905Y-88362619D01*
X90701905Y-88362619D02*
X91082857Y-88362619D01*
X91082857Y-88362619D02*
X91178095Y-88410238D01*
X91178095Y-88410238D02*
X91225714Y-88457857D01*
X91225714Y-88457857D02*
X91273333Y-88553095D01*
X91273333Y-88553095D02*
X91273333Y-88695952D01*
X91273333Y-88695952D02*
X91225714Y-88791190D01*
X91225714Y-88791190D02*
X91178095Y-88838809D01*
X91178095Y-88838809D02*
X91082857Y-88886428D01*
X91082857Y-88886428D02*
X90701905Y-88886428D01*
X91606667Y-88362619D02*
X92273333Y-88362619D01*
X92273333Y-88362619D02*
X91844762Y-89362619D01*
%TO.C,R6*%
X135082619Y-58586666D02*
X134606428Y-58919999D01*
X135082619Y-59158094D02*
X134082619Y-59158094D01*
X134082619Y-59158094D02*
X134082619Y-58777142D01*
X134082619Y-58777142D02*
X134130238Y-58681904D01*
X134130238Y-58681904D02*
X134177857Y-58634285D01*
X134177857Y-58634285D02*
X134273095Y-58586666D01*
X134273095Y-58586666D02*
X134415952Y-58586666D01*
X134415952Y-58586666D02*
X134511190Y-58634285D01*
X134511190Y-58634285D02*
X134558809Y-58681904D01*
X134558809Y-58681904D02*
X134606428Y-58777142D01*
X134606428Y-58777142D02*
X134606428Y-59158094D01*
X134082619Y-57729523D02*
X134082619Y-57919999D01*
X134082619Y-57919999D02*
X134130238Y-58015237D01*
X134130238Y-58015237D02*
X134177857Y-58062856D01*
X134177857Y-58062856D02*
X134320714Y-58158094D01*
X134320714Y-58158094D02*
X134511190Y-58205713D01*
X134511190Y-58205713D02*
X134892142Y-58205713D01*
X134892142Y-58205713D02*
X134987380Y-58158094D01*
X134987380Y-58158094D02*
X135035000Y-58110475D01*
X135035000Y-58110475D02*
X135082619Y-58015237D01*
X135082619Y-58015237D02*
X135082619Y-57824761D01*
X135082619Y-57824761D02*
X135035000Y-57729523D01*
X135035000Y-57729523D02*
X134987380Y-57681904D01*
X134987380Y-57681904D02*
X134892142Y-57634285D01*
X134892142Y-57634285D02*
X134654047Y-57634285D01*
X134654047Y-57634285D02*
X134558809Y-57681904D01*
X134558809Y-57681904D02*
X134511190Y-57729523D01*
X134511190Y-57729523D02*
X134463571Y-57824761D01*
X134463571Y-57824761D02*
X134463571Y-58015237D01*
X134463571Y-58015237D02*
X134511190Y-58110475D01*
X134511190Y-58110475D02*
X134558809Y-58158094D01*
X134558809Y-58158094D02*
X134654047Y-58205713D01*
%TO.C,RV1*%
X136549761Y-132082619D02*
X136216428Y-131606428D01*
X135978333Y-132082619D02*
X135978333Y-131082619D01*
X135978333Y-131082619D02*
X136359285Y-131082619D01*
X136359285Y-131082619D02*
X136454523Y-131130238D01*
X136454523Y-131130238D02*
X136502142Y-131177857D01*
X136502142Y-131177857D02*
X136549761Y-131273095D01*
X136549761Y-131273095D02*
X136549761Y-131415952D01*
X136549761Y-131415952D02*
X136502142Y-131511190D01*
X136502142Y-131511190D02*
X136454523Y-131558809D01*
X136454523Y-131558809D02*
X136359285Y-131606428D01*
X136359285Y-131606428D02*
X135978333Y-131606428D01*
X136835476Y-131082619D02*
X137168809Y-132082619D01*
X137168809Y-132082619D02*
X137502142Y-131082619D01*
X138359285Y-132082619D02*
X137787857Y-132082619D01*
X138073571Y-132082619D02*
X138073571Y-131082619D01*
X138073571Y-131082619D02*
X137978333Y-131225476D01*
X137978333Y-131225476D02*
X137883095Y-131320714D01*
X137883095Y-131320714D02*
X137787857Y-131368333D01*
%TO.C,DS1*%
X156672619Y-106094285D02*
X155672619Y-106094285D01*
X155672619Y-106094285D02*
X155672619Y-105856190D01*
X155672619Y-105856190D02*
X155720238Y-105713333D01*
X155720238Y-105713333D02*
X155815476Y-105618095D01*
X155815476Y-105618095D02*
X155910714Y-105570476D01*
X155910714Y-105570476D02*
X156101190Y-105522857D01*
X156101190Y-105522857D02*
X156244047Y-105522857D01*
X156244047Y-105522857D02*
X156434523Y-105570476D01*
X156434523Y-105570476D02*
X156529761Y-105618095D01*
X156529761Y-105618095D02*
X156625000Y-105713333D01*
X156625000Y-105713333D02*
X156672619Y-105856190D01*
X156672619Y-105856190D02*
X156672619Y-106094285D01*
X156625000Y-105141904D02*
X156672619Y-104999047D01*
X156672619Y-104999047D02*
X156672619Y-104760952D01*
X156672619Y-104760952D02*
X156625000Y-104665714D01*
X156625000Y-104665714D02*
X156577380Y-104618095D01*
X156577380Y-104618095D02*
X156482142Y-104570476D01*
X156482142Y-104570476D02*
X156386904Y-104570476D01*
X156386904Y-104570476D02*
X156291666Y-104618095D01*
X156291666Y-104618095D02*
X156244047Y-104665714D01*
X156244047Y-104665714D02*
X156196428Y-104760952D01*
X156196428Y-104760952D02*
X156148809Y-104951428D01*
X156148809Y-104951428D02*
X156101190Y-105046666D01*
X156101190Y-105046666D02*
X156053571Y-105094285D01*
X156053571Y-105094285D02*
X155958333Y-105141904D01*
X155958333Y-105141904D02*
X155863095Y-105141904D01*
X155863095Y-105141904D02*
X155767857Y-105094285D01*
X155767857Y-105094285D02*
X155720238Y-105046666D01*
X155720238Y-105046666D02*
X155672619Y-104951428D01*
X155672619Y-104951428D02*
X155672619Y-104713333D01*
X155672619Y-104713333D02*
X155720238Y-104570476D01*
X156672619Y-103618095D02*
X156672619Y-104189523D01*
X156672619Y-103903809D02*
X155672619Y-103903809D01*
X155672619Y-103903809D02*
X155815476Y-103999047D01*
X155815476Y-103999047D02*
X155910714Y-104094285D01*
X155910714Y-104094285D02*
X155958333Y-104189523D01*
%TO.C,U1*%
X107900095Y-56505619D02*
X107900095Y-57315142D01*
X107900095Y-57315142D02*
X107947714Y-57410380D01*
X107947714Y-57410380D02*
X107995333Y-57458000D01*
X107995333Y-57458000D02*
X108090571Y-57505619D01*
X108090571Y-57505619D02*
X108281047Y-57505619D01*
X108281047Y-57505619D02*
X108376285Y-57458000D01*
X108376285Y-57458000D02*
X108423904Y-57410380D01*
X108423904Y-57410380D02*
X108471523Y-57315142D01*
X108471523Y-57315142D02*
X108471523Y-56505619D01*
X109471523Y-57505619D02*
X108900095Y-57505619D01*
X109185809Y-57505619D02*
X109185809Y-56505619D01*
X109185809Y-56505619D02*
X109090571Y-56648476D01*
X109090571Y-56648476D02*
X108995333Y-56743714D01*
X108995333Y-56743714D02*
X108900095Y-56791333D01*
%TO.C,J4*%
X60626666Y-106142619D02*
X60626666Y-106856904D01*
X60626666Y-106856904D02*
X60579047Y-106999761D01*
X60579047Y-106999761D02*
X60483809Y-107095000D01*
X60483809Y-107095000D02*
X60340952Y-107142619D01*
X60340952Y-107142619D02*
X60245714Y-107142619D01*
X61531428Y-106475952D02*
X61531428Y-107142619D01*
X61293333Y-106095000D02*
X61055238Y-106809285D01*
X61055238Y-106809285D02*
X61674285Y-106809285D01*
%TO.C,J2*%
X58086666Y-116262619D02*
X58086666Y-116976904D01*
X58086666Y-116976904D02*
X58039047Y-117119761D01*
X58039047Y-117119761D02*
X57943809Y-117215000D01*
X57943809Y-117215000D02*
X57800952Y-117262619D01*
X57800952Y-117262619D02*
X57705714Y-117262619D01*
X58515238Y-116357857D02*
X58562857Y-116310238D01*
X58562857Y-116310238D02*
X58658095Y-116262619D01*
X58658095Y-116262619D02*
X58896190Y-116262619D01*
X58896190Y-116262619D02*
X58991428Y-116310238D01*
X58991428Y-116310238D02*
X59039047Y-116357857D01*
X59039047Y-116357857D02*
X59086666Y-116453095D01*
X59086666Y-116453095D02*
X59086666Y-116548333D01*
X59086666Y-116548333D02*
X59039047Y-116691190D01*
X59039047Y-116691190D02*
X58467619Y-117262619D01*
X58467619Y-117262619D02*
X59086666Y-117262619D01*
%TO.C,J3*%
X58086666Y-99592619D02*
X58086666Y-100306904D01*
X58086666Y-100306904D02*
X58039047Y-100449761D01*
X58039047Y-100449761D02*
X57943809Y-100545000D01*
X57943809Y-100545000D02*
X57800952Y-100592619D01*
X57800952Y-100592619D02*
X57705714Y-100592619D01*
X58467619Y-99592619D02*
X59086666Y-99592619D01*
X59086666Y-99592619D02*
X58753333Y-99973571D01*
X58753333Y-99973571D02*
X58896190Y-99973571D01*
X58896190Y-99973571D02*
X58991428Y-100021190D01*
X58991428Y-100021190D02*
X59039047Y-100068809D01*
X59039047Y-100068809D02*
X59086666Y-100164047D01*
X59086666Y-100164047D02*
X59086666Y-100402142D01*
X59086666Y-100402142D02*
X59039047Y-100497380D01*
X59039047Y-100497380D02*
X58991428Y-100545000D01*
X58991428Y-100545000D02*
X58896190Y-100592619D01*
X58896190Y-100592619D02*
X58610476Y-100592619D01*
X58610476Y-100592619D02*
X58515238Y-100545000D01*
X58515238Y-100545000D02*
X58467619Y-100497380D01*
%TO.C,K1*%
X77725119Y-110560594D02*
X76725119Y-110560594D01*
X77725119Y-109989166D02*
X77153690Y-110417737D01*
X76725119Y-109989166D02*
X77296547Y-110560594D01*
X77725119Y-109036785D02*
X77725119Y-109608213D01*
X77725119Y-109322499D02*
X76725119Y-109322499D01*
X76725119Y-109322499D02*
X76867976Y-109417737D01*
X76867976Y-109417737D02*
X76963214Y-109512975D01*
X76963214Y-109512975D02*
X77010833Y-109608213D01*
%TO.C,C3*%
X86193333Y-86139880D02*
X86145714Y-86187500D01*
X86145714Y-86187500D02*
X86002857Y-86235119D01*
X86002857Y-86235119D02*
X85907619Y-86235119D01*
X85907619Y-86235119D02*
X85764762Y-86187500D01*
X85764762Y-86187500D02*
X85669524Y-86092261D01*
X85669524Y-86092261D02*
X85621905Y-85997023D01*
X85621905Y-85997023D02*
X85574286Y-85806547D01*
X85574286Y-85806547D02*
X85574286Y-85663690D01*
X85574286Y-85663690D02*
X85621905Y-85473214D01*
X85621905Y-85473214D02*
X85669524Y-85377976D01*
X85669524Y-85377976D02*
X85764762Y-85282738D01*
X85764762Y-85282738D02*
X85907619Y-85235119D01*
X85907619Y-85235119D02*
X86002857Y-85235119D01*
X86002857Y-85235119D02*
X86145714Y-85282738D01*
X86145714Y-85282738D02*
X86193333Y-85330357D01*
X86526667Y-85235119D02*
X87145714Y-85235119D01*
X87145714Y-85235119D02*
X86812381Y-85616071D01*
X86812381Y-85616071D02*
X86955238Y-85616071D01*
X86955238Y-85616071D02*
X87050476Y-85663690D01*
X87050476Y-85663690D02*
X87098095Y-85711309D01*
X87098095Y-85711309D02*
X87145714Y-85806547D01*
X87145714Y-85806547D02*
X87145714Y-86044642D01*
X87145714Y-86044642D02*
X87098095Y-86139880D01*
X87098095Y-86139880D02*
X87050476Y-86187500D01*
X87050476Y-86187500D02*
X86955238Y-86235119D01*
X86955238Y-86235119D02*
X86669524Y-86235119D01*
X86669524Y-86235119D02*
X86574286Y-86187500D01*
X86574286Y-86187500D02*
X86526667Y-86139880D01*
%TO.C,C1*%
X86693333Y-114667380D02*
X86645714Y-114715000D01*
X86645714Y-114715000D02*
X86502857Y-114762619D01*
X86502857Y-114762619D02*
X86407619Y-114762619D01*
X86407619Y-114762619D02*
X86264762Y-114715000D01*
X86264762Y-114715000D02*
X86169524Y-114619761D01*
X86169524Y-114619761D02*
X86121905Y-114524523D01*
X86121905Y-114524523D02*
X86074286Y-114334047D01*
X86074286Y-114334047D02*
X86074286Y-114191190D01*
X86074286Y-114191190D02*
X86121905Y-114000714D01*
X86121905Y-114000714D02*
X86169524Y-113905476D01*
X86169524Y-113905476D02*
X86264762Y-113810238D01*
X86264762Y-113810238D02*
X86407619Y-113762619D01*
X86407619Y-113762619D02*
X86502857Y-113762619D01*
X86502857Y-113762619D02*
X86645714Y-113810238D01*
X86645714Y-113810238D02*
X86693333Y-113857857D01*
X87645714Y-114762619D02*
X87074286Y-114762619D01*
X87360000Y-114762619D02*
X87360000Y-113762619D01*
X87360000Y-113762619D02*
X87264762Y-113905476D01*
X87264762Y-113905476D02*
X87169524Y-114000714D01*
X87169524Y-114000714D02*
X87074286Y-114048333D01*
%TO.C,R1*%
X99692619Y-104306666D02*
X99216428Y-104639999D01*
X99692619Y-104878094D02*
X98692619Y-104878094D01*
X98692619Y-104878094D02*
X98692619Y-104497142D01*
X98692619Y-104497142D02*
X98740238Y-104401904D01*
X98740238Y-104401904D02*
X98787857Y-104354285D01*
X98787857Y-104354285D02*
X98883095Y-104306666D01*
X98883095Y-104306666D02*
X99025952Y-104306666D01*
X99025952Y-104306666D02*
X99121190Y-104354285D01*
X99121190Y-104354285D02*
X99168809Y-104401904D01*
X99168809Y-104401904D02*
X99216428Y-104497142D01*
X99216428Y-104497142D02*
X99216428Y-104878094D01*
X99692619Y-103354285D02*
X99692619Y-103925713D01*
X99692619Y-103639999D02*
X98692619Y-103639999D01*
X98692619Y-103639999D02*
X98835476Y-103735237D01*
X98835476Y-103735237D02*
X98930714Y-103830475D01*
X98930714Y-103830475D02*
X98978333Y-103925713D01*
%TO.C,Y1*%
X91426428Y-114776190D02*
X91902619Y-114776190D01*
X90902619Y-115109523D02*
X91426428Y-114776190D01*
X91426428Y-114776190D02*
X90902619Y-114442857D01*
X91902619Y-113585714D02*
X91902619Y-114157142D01*
X91902619Y-113871428D02*
X90902619Y-113871428D01*
X90902619Y-113871428D02*
X91045476Y-113966666D01*
X91045476Y-113966666D02*
X91140714Y-114061904D01*
X91140714Y-114061904D02*
X91188333Y-114157142D01*
%TO.C,J1*%
X128206666Y-110102619D02*
X128206666Y-110816904D01*
X128206666Y-110816904D02*
X128159047Y-110959761D01*
X128159047Y-110959761D02*
X128063809Y-111055000D01*
X128063809Y-111055000D02*
X127920952Y-111102619D01*
X127920952Y-111102619D02*
X127825714Y-111102619D01*
X129206666Y-111102619D02*
X128635238Y-111102619D01*
X128920952Y-111102619D02*
X128920952Y-110102619D01*
X128920952Y-110102619D02*
X128825714Y-110245476D01*
X128825714Y-110245476D02*
X128730476Y-110340714D01*
X128730476Y-110340714D02*
X128635238Y-110388333D01*
%TO.C,D1*%
X72921905Y-94442619D02*
X72921905Y-93442619D01*
X72921905Y-93442619D02*
X73160000Y-93442619D01*
X73160000Y-93442619D02*
X73302857Y-93490238D01*
X73302857Y-93490238D02*
X73398095Y-93585476D01*
X73398095Y-93585476D02*
X73445714Y-93680714D01*
X73445714Y-93680714D02*
X73493333Y-93871190D01*
X73493333Y-93871190D02*
X73493333Y-94014047D01*
X73493333Y-94014047D02*
X73445714Y-94204523D01*
X73445714Y-94204523D02*
X73398095Y-94299761D01*
X73398095Y-94299761D02*
X73302857Y-94395000D01*
X73302857Y-94395000D02*
X73160000Y-94442619D01*
X73160000Y-94442619D02*
X72921905Y-94442619D01*
X74445714Y-94442619D02*
X73874286Y-94442619D01*
X74160000Y-94442619D02*
X74160000Y-93442619D01*
X74160000Y-93442619D02*
X74064762Y-93585476D01*
X74064762Y-93585476D02*
X73969524Y-93680714D01*
X73969524Y-93680714D02*
X73874286Y-93728333D01*
X78478095Y-99082619D02*
X78478095Y-98082619D01*
X79049523Y-99082619D02*
X78620952Y-98511190D01*
X79049523Y-98082619D02*
X78478095Y-98654047D01*
%TO.C,Q2*%
X64674761Y-83357857D02*
X64579523Y-83310238D01*
X64579523Y-83310238D02*
X64484285Y-83215000D01*
X64484285Y-83215000D02*
X64341428Y-83072142D01*
X64341428Y-83072142D02*
X64246190Y-83024523D01*
X64246190Y-83024523D02*
X64150952Y-83024523D01*
X64198571Y-83262619D02*
X64103333Y-83215000D01*
X64103333Y-83215000D02*
X64008095Y-83119761D01*
X64008095Y-83119761D02*
X63960476Y-82929285D01*
X63960476Y-82929285D02*
X63960476Y-82595952D01*
X63960476Y-82595952D02*
X64008095Y-82405476D01*
X64008095Y-82405476D02*
X64103333Y-82310238D01*
X64103333Y-82310238D02*
X64198571Y-82262619D01*
X64198571Y-82262619D02*
X64389047Y-82262619D01*
X64389047Y-82262619D02*
X64484285Y-82310238D01*
X64484285Y-82310238D02*
X64579523Y-82405476D01*
X64579523Y-82405476D02*
X64627142Y-82595952D01*
X64627142Y-82595952D02*
X64627142Y-82929285D01*
X64627142Y-82929285D02*
X64579523Y-83119761D01*
X64579523Y-83119761D02*
X64484285Y-83215000D01*
X64484285Y-83215000D02*
X64389047Y-83262619D01*
X64389047Y-83262619D02*
X64198571Y-83262619D01*
X65008095Y-82357857D02*
X65055714Y-82310238D01*
X65055714Y-82310238D02*
X65150952Y-82262619D01*
X65150952Y-82262619D02*
X65389047Y-82262619D01*
X65389047Y-82262619D02*
X65484285Y-82310238D01*
X65484285Y-82310238D02*
X65531904Y-82357857D01*
X65531904Y-82357857D02*
X65579523Y-82453095D01*
X65579523Y-82453095D02*
X65579523Y-82548333D01*
X65579523Y-82548333D02*
X65531904Y-82691190D01*
X65531904Y-82691190D02*
X64960476Y-83262619D01*
X64960476Y-83262619D02*
X65579523Y-83262619D01*
D11*
%TO.C,SW1*%
X91690000Y-97560000D02*
X91690000Y-96060000D01*
X90440000Y-93560000D02*
X85940000Y-93560000D01*
X85940000Y-100060000D02*
X90440000Y-100060000D01*
X84690000Y-96060000D02*
X84690000Y-97560000D01*
%TO.C,R5*%
X133890000Y-70080000D02*
X133890000Y-66770000D01*
X132520000Y-66770000D02*
X135260000Y-66770000D01*
X135260000Y-66770000D02*
X135260000Y-60230000D01*
X132520000Y-60230000D02*
X132520000Y-66770000D01*
X135260000Y-60230000D02*
X132520000Y-60230000D01*
X133890000Y-56920000D02*
X133890000Y-60230000D01*
%TO.C,C2*%
X90480000Y-108090000D02*
X90480000Y-105350000D01*
X90480000Y-108090000D02*
X83240000Y-108090000D01*
X90480000Y-105350000D02*
X83240000Y-105350000D01*
X83240000Y-108090000D02*
X83240000Y-105350000D01*
%TO.C,R4*%
X129540000Y-70080000D02*
X129540000Y-66770000D01*
X128170000Y-66770000D02*
X130910000Y-66770000D01*
X130910000Y-66770000D02*
X130910000Y-60230000D01*
X128170000Y-60230000D02*
X128170000Y-66770000D01*
X130910000Y-60230000D02*
X128170000Y-60230000D01*
X129540000Y-56920000D02*
X129540000Y-60230000D01*
%TO.C,R7*%
X98020000Y-83820000D02*
X94710000Y-83820000D01*
X94710000Y-85190000D02*
X94710000Y-82450000D01*
X94710000Y-82450000D02*
X88170000Y-82450000D01*
X88170000Y-85190000D02*
X94710000Y-85190000D01*
X88170000Y-82450000D02*
X88170000Y-85190000D01*
X84860000Y-83820000D02*
X88170000Y-83820000D01*
%TO.C,R6*%
X137160000Y-70080000D02*
X137160000Y-66770000D01*
X135790000Y-66770000D02*
X138530000Y-66770000D01*
X138530000Y-66770000D02*
X138530000Y-60230000D01*
X135790000Y-60230000D02*
X135790000Y-66770000D01*
X138530000Y-60230000D02*
X135790000Y-60230000D01*
X137160000Y-56920000D02*
X137160000Y-60230000D01*
%TO.C,RV1*%
X145430000Y-130490000D02*
X145430000Y-113350000D01*
X145430000Y-130490000D02*
X134510000Y-130490000D01*
X145430000Y-113350000D02*
X134510000Y-113350000D01*
X143080000Y-121920000D02*
G75*
G03*
X143080000Y-121920000I-8570000J0D01*
G01*
%TO.C,DS1*%
X157380000Y-107200000D02*
X193660000Y-107200000D01*
X193660000Y-107200000D02*
X193660000Y-26920000D01*
X157380000Y-107190000D02*
X157380000Y-106400000D01*
X163020000Y-104060000D02*
X163020000Y-31060000D01*
X188020000Y-104060000D02*
X163020000Y-104060000D01*
X157020000Y-100560000D02*
X157020000Y-97560000D01*
X182519320Y-99359720D02*
X168520000Y-99359720D01*
X168020000Y-98860000D02*
X168020000Y-35360000D01*
X183020000Y-35359340D02*
X183020000Y-98860000D01*
X168520000Y-34860000D02*
X182520000Y-34860000D01*
X163020000Y-31060000D02*
X188020000Y-31060000D01*
X188020000Y-31060000D02*
X188020000Y-104060000D01*
X157380000Y-26920000D02*
X157380000Y-106400000D01*
X193660000Y-26920000D02*
X157380000Y-26920000D01*
X168018460Y-98859340D02*
G75*
G03*
X168518840Y-99359720I500380J0D01*
G01*
X182519320Y-99359720D02*
G75*
G03*
X183019700Y-98859340I0J500380D01*
G01*
X168520000Y-34860000D02*
G75*
G03*
X168020000Y-35360000I0J-500000D01*
G01*
X183019640Y-35359340D02*
G75*
G03*
X182519320Y-34858960I-500340J40D01*
G01*
D12*
%TO.C,U1*%
X107283000Y-58928000D02*
X107283000Y-60015000D01*
X107283000Y-58928000D02*
X120999000Y-58928000D01*
X107283000Y-58928000D02*
X120999000Y-58928000D01*
X107283000Y-111252000D02*
X107283000Y-110165000D01*
X107283000Y-111252000D02*
X120999000Y-111252000D01*
X107283000Y-111252000D02*
X120999000Y-111252000D01*
X120999000Y-58928000D02*
X120999000Y-60015000D01*
X120999000Y-111252000D02*
X120999000Y-110165000D01*
D13*
X104837000Y-60960000D02*
G75*
G03*
X104837000Y-60960000I-100000J0D01*
G01*
D11*
%TO.C,J4*%
X57360000Y-107620000D02*
X57360000Y-107740000D01*
X57360000Y-107740000D02*
X59480000Y-107740000D01*
X58420000Y-105620000D02*
X59480000Y-105620000D01*
X59480000Y-105620000D02*
X59480000Y-106680000D01*
X59480000Y-107620000D02*
X59480000Y-107740000D01*
%TO.C,J2*%
X59480000Y-113300000D02*
X59480000Y-111240000D01*
X59480000Y-113300000D02*
X57360000Y-113300000D01*
X59480000Y-111240000D02*
X57360000Y-111240000D01*
X58420000Y-115360000D02*
X57360000Y-115360000D01*
X57360000Y-115360000D02*
X57360000Y-114300000D01*
X57360000Y-113300000D02*
X57360000Y-111240000D01*
%TO.C,J3*%
X57360000Y-103570000D02*
X57360000Y-103690000D01*
X57360000Y-103690000D02*
X59480000Y-103690000D01*
X58420000Y-101570000D02*
X59480000Y-101570000D01*
X59480000Y-101570000D02*
X59480000Y-102630000D01*
X59480000Y-103570000D02*
X59480000Y-103690000D01*
%TO.C,K1*%
X65862500Y-98822500D02*
X67362500Y-98822500D01*
X76362500Y-98922500D02*
X76362500Y-119322500D01*
X65962500Y-98922500D02*
X76362500Y-98922500D01*
X71462500Y-99922500D02*
X70762500Y-99922500D01*
X70762500Y-99922500D02*
X70762500Y-101122500D01*
X71462500Y-100522500D02*
X72562500Y-100522500D01*
X70762500Y-100522500D02*
X69662500Y-100522500D01*
X65862500Y-100522500D02*
X65862500Y-98822500D01*
X70762500Y-100722500D02*
X71462500Y-100322500D01*
X71462500Y-101122500D02*
X71462500Y-99922500D01*
X70762500Y-101122500D02*
X71462500Y-101122500D01*
X76362500Y-118722500D02*
X75762500Y-119322500D01*
X76362500Y-119122500D02*
X76162500Y-119322500D01*
X76362500Y-119322500D02*
X75762500Y-119322500D01*
X76062500Y-119322500D02*
X76362500Y-118922500D01*
X75962500Y-119322500D02*
X76362500Y-118922500D01*
X75862500Y-119322500D02*
X76362500Y-118822500D01*
X74162500Y-119322500D02*
X68162500Y-119322500D01*
X66562500Y-119322500D02*
X65962500Y-119322500D01*
X65962500Y-119322500D02*
X65962500Y-98922500D01*
%TO.C,C3*%
X84570000Y-86942500D02*
X86070000Y-86942500D01*
X85180000Y-89142500D02*
X86320000Y-89142500D01*
X85320000Y-86192500D02*
X85320000Y-87692500D01*
X86320000Y-86772500D02*
X86320000Y-91512500D01*
X86320000Y-86772500D02*
X87820000Y-86772500D01*
X86320000Y-91512500D02*
X87820000Y-91512500D01*
X87820000Y-86772500D02*
X88570000Y-87522500D01*
X87820000Y-91512500D02*
X88570000Y-90762500D01*
X88570000Y-87522500D02*
X89320000Y-86772500D01*
X88570000Y-90762500D02*
X89320000Y-91512500D01*
X89320000Y-86772500D02*
X96560000Y-86772500D01*
X89320000Y-91512500D02*
X96560000Y-91512500D01*
X96560000Y-86772500D02*
X96560000Y-91512500D01*
X97700000Y-89142500D02*
X96560000Y-89142500D01*
%TO.C,C1*%
X90480000Y-113170000D02*
X90480000Y-110430000D01*
X90480000Y-113170000D02*
X83240000Y-113170000D01*
X90480000Y-110430000D02*
X83240000Y-110430000D01*
X83240000Y-113170000D02*
X83240000Y-110430000D01*
%TO.C,R1*%
X101600000Y-110720000D02*
X101600000Y-107410000D01*
X100230000Y-107410000D02*
X102970000Y-107410000D01*
X102970000Y-107410000D02*
X102970000Y-100870000D01*
X100230000Y-100870000D02*
X100230000Y-107410000D01*
X102970000Y-100870000D02*
X100230000Y-100870000D01*
X101600000Y-97560000D02*
X101600000Y-100870000D01*
%TO.C,Y1*%
X91995000Y-109895000D02*
X91995000Y-103645000D01*
X97045000Y-109895000D02*
X97045000Y-103645000D01*
X91995000Y-109895000D02*
G75*
G03*
X97045000Y-109895000I2525000J0D01*
G01*
X97045000Y-103645000D02*
G75*
G03*
X91995000Y-103645000I-2525000J0D01*
G01*
%TO.C,J1*%
X129600000Y-107140000D02*
X129600000Y-93080000D01*
X129600000Y-107140000D02*
X127480000Y-107140000D01*
X129600000Y-93080000D02*
X127480000Y-93080000D01*
X128540000Y-109200000D02*
X127480000Y-109200000D01*
X127480000Y-109200000D02*
X127480000Y-108140000D01*
X127480000Y-107140000D02*
X127480000Y-93080000D01*
%TO.C,D1*%
X77400000Y-96520000D02*
X76380000Y-96520000D01*
X76380000Y-97990000D02*
X76380000Y-95050000D01*
X76380000Y-95050000D02*
X70940000Y-95050000D01*
X75600000Y-97990000D02*
X75600000Y-95050000D01*
X75480000Y-97990000D02*
X75480000Y-95050000D01*
X75360000Y-97990000D02*
X75360000Y-95050000D01*
X70940000Y-97990000D02*
X76380000Y-97990000D01*
X70940000Y-95050000D02*
X70940000Y-97990000D01*
X69920000Y-96520000D02*
X70940000Y-96520000D01*
%TO.C,Q2*%
X62970000Y-88210000D02*
X66570000Y-88210000D01*
X64770000Y-83760000D02*
G75*
G03*
X62931522Y-88198478I0J-2600000D01*
G01*
X66608478Y-88198478D02*
G75*
G03*
X64770000Y-83760000I-1838478J1838478D01*
G01*
%TD*%
M02*
