M48
; DRILL file {KiCad 7.0.2} date Sat Jun  3 11:17:29 2023
; FORMAT={-:-/ absolute / inch / decimal}
; #@! TF.CreationDate,2023-06-03T11:17:29+05:30
; #@! TF.GenerationSoftware,Kicad,Pcbnew,7.0.2
; #@! TF.FileFunction,Plated,1,2,PTH
FMAT,2
INCH
; #@! TA.AperFunction,Plated,PTH,ComponentDrill
T1C0.0295
; #@! TA.AperFunction,Plated,PTH,ComponentDrill
T2C0.0315
; #@! TA.AperFunction,Plated,PTH,ComponentDrill
T3C0.0327
; #@! TA.AperFunction,Plated,PTH,ComponentDrill
T4C0.0394
; #@! TA.AperFunction,Plated,PTH,ComponentDrill
T5C0.0433
; #@! TA.AperFunction,Plated,PTH,ComponentDrill
T6C0.0472
; #@! TA.AperFunction,Plated,PTH,ComponentDrill
T7C0.0512
; #@! TA.AperFunction,Plated,PTH,ComponentDrill
T8C0.0984
%
G90
G05
T1
X2.5Y-3.4
X2.55Y-3.4
X2.6Y-3.4
T2
X2.3Y-4.0406
X2.3Y-4.2
X2.3Y-4.4213
X2.3Y-4.5
X3.3Y-3.3
X3.3213Y-4.2016
X3.3213Y-4.4016
X3.5181Y-4.2016
X3.5181Y-4.4016
X3.7213Y-4.1071
X3.7213Y-4.3
X3.9Y-3.3
X4.0Y-3.8
X4.0Y-4.4
X5.0606Y-3.7063
X5.0606Y-3.785
X5.0606Y-3.8638
X5.0606Y-3.9425
X5.0606Y-4.0213
X5.0606Y-4.1
X5.0606Y-4.1787
X5.0606Y-4.2575
X5.1Y-2.2
X5.1Y-2.8
X5.2713Y-2.2
X5.2713Y-2.8
X5.4Y-2.2
X5.4Y-2.8
T3
X4.1875Y-2.4
X4.1875Y-2.5
X4.1875Y-2.6
X4.1875Y-2.7
X4.1875Y-2.8
X4.1875Y-2.9
X4.1875Y-3.0
X4.1875Y-3.1
X4.1875Y-3.2
X4.1875Y-3.3
X4.1875Y-3.4
X4.1875Y-3.5
X4.1875Y-3.6
X4.1875Y-3.7
X4.1875Y-3.8
X4.1875Y-3.9
X4.1875Y-4.0
X4.1875Y-4.1
X4.1875Y-4.2
X4.1875Y-4.3
X4.8Y-2.4
X4.8Y-2.5
X4.8Y-2.6
X4.8Y-2.7
X4.8Y-2.8
X4.8Y-2.9
X4.8Y-3.0
X4.8Y-3.1
X4.8Y-3.2
X4.8Y-3.3
X4.8Y-3.4
X4.8Y-3.5
X4.8Y-3.6
X4.8Y-3.7
X4.8Y-3.8
X4.8Y-3.9
X4.8Y-4.0
X4.8Y-4.1
X4.8Y-4.2
X4.8Y-4.3
T4
X2.6521Y-3.9576
X2.9521Y-3.9576
X3.3047Y-3.5095
X3.8953Y-3.5095
T5
X2.7Y-3.8
X3.1Y-3.8
X3.3441Y-3.7228
X3.3441Y-3.9
X3.6Y-3.7228
X3.6Y-3.9
T6
X2.6521Y-4.3576
X2.6521Y-4.6576
X2.9521Y-4.6576
X6.3Y-2.4
X6.3Y-2.5
X6.3Y-2.6
X6.3Y-2.7
X6.3Y-2.8
X6.3Y-2.9
X6.3Y-3.0
X6.3Y-3.1
X6.3Y-3.2
X6.3Y-3.3
X6.3Y-3.4
X6.3Y-3.5
X6.3Y-3.6
X6.3Y-3.7
X6.3Y-3.8
X6.3Y-3.9
T7
X5.7898Y-4.6031
X5.7898Y-4.8
X5.7898Y-4.9969
T8
X6.3Y-1.1638
X6.3Y-4.1165
X7.5205Y-1.1638
X7.5205Y-4.1165
T0
M30
